<?xml version="1.0" encoding="UTF-8" standalone="no"?>
<svg
   xmlns:dc="http://purl.org/dc/elements/1.1/"
   xmlns:cc="http://creativecommons.org/ns#"
   xmlns:rdf="http://www.w3.org/1999/02/22-rdf-syntax-ns#"
   xmlns:svg="http://www.w3.org/2000/svg"
   xmlns="http://www.w3.org/2000/svg"
   xmlns:sodipodi="http://sodipodi.sourceforge.net/DTD/sodipodi-0.dtd"
   xmlns:inkscape="http://www.inkscape.org/namespaces/inkscape"
   version="1.1"
   viewBox="0 0 731.21149 132.18459"
   stroke-miterlimit="10"
   id="svg33"
   sodipodi:docname="expressed_experienced.svg"
   width="731.21149"
   height="132.18459"
   style="fill:none;stroke:none;stroke-linecap:square;stroke-miterlimit:10"
   inkscape:version="0.92.5 (2060ec1f9f, 2020-04-08)">
  <metadata
     id="metadata39">
    <rdf:RDF>
      <cc:Work
         rdf:about="">
        <dc:format>image/svg+xml</dc:format>
        <dc:type
           rdf:resource="http://purl.org/dc/dcmitype/StillImage" />
        <dc:title></dc:title>
      </cc:Work>
    </rdf:RDF>
  </metadata>
  <defs
     id="defs37">
    <clipPath
       clipPathUnits="userSpaceOnUse"
       id="clipPath25">
      <rect
         style="opacity:1;fill:none;fill-opacity:1;stroke:#ffffff;stroke-width:5.55495214;stroke-miterlimit:4;stroke-dasharray:none;stroke-dashoffset:10.28661251;stroke-opacity:1"
         id="rect27"
         width="742.29913"
         height="127.24548"
         x="2.4695537"
         y="2.4695537" />
    </clipPath>
    <clipPath
       clipPathUnits="userSpaceOnUse"
       id="clipPath29">
      <rect
         style="opacity:1;fill:none;fill-opacity:1;stroke:#ffffff;stroke-width:5.55495214;stroke-miterlimit:4;stroke-dasharray:none;stroke-dashoffset:10.28661251;stroke-opacity:1"
         id="rect31"
         width="742.29913"
         height="127.24548"
         x="135.41815"
         y="160.70842" />
    </clipPath>
  </defs>
  <sodipodi:namedview
     pagecolor="#ffffff"
     bordercolor="#666666"
     borderopacity="1"
     objecttolerance="10"
     gridtolerance="10"
     guidetolerance="10"
     inkscape:pageopacity="0"
     inkscape:pageshadow="2"
     inkscape:window-width="1516"
     inkscape:window-height="898"
     id="namedview35"
     showgrid="false"
     fit-margin-top="0"
     fit-margin-left="0"
     fit-margin-right="0"
     fit-margin-bottom="0"
     inkscape:zoom="0.29270833"
     inkscape:cx="103.27608"
     inkscape:cy="-17.021536"
     inkscape:window-x="0"
     inkscape:window-y="0"
     inkscape:window-maximized="0"
     inkscape:current-layer="svg33" />
  <clipPath
     id="gee2ccda177_0_48.0">
    <path
       d="M 0,0 H 960 V 540 H 0 Z"
       id="path2"
       inkscape:connector-curvature="0"
       style="clip-rule:nonzero" />
  </clipPath>
  <g
     clip-path="url(#clipPath29)"
     id="g31"
     transform="translate(-132.9486,-158.23887)">
    <path
       d="M 0,0 H 960 V 540 H 0 Z"
       id="path5"
       inkscape:connector-curvature="0"
       style="fill:#ffffff;fill-rule:evenodd" />
    <path
       d="M 90.661415,179.90814 H 369.84253 V 296.25458 H 90.661415 Z"
       id="path7"
       inkscape:connector-curvature="0"
       style="fill:#000000;fill-opacity:0;fill-rule:evenodd" />
    <path
       d="m 138.93166,227.30814 v -28.64063 h 20.70312 v 3.39063 h -16.92187 v 8.76562 h 15.84375 v 3.35938 h -15.84375 v 9.75 h 17.57812 v 3.375 z m 23.80469,0 7.57812,-10.78125 -7.01562,-9.96875 h 4.39062 l 3.1875,4.875 q 0.90625,1.375 1.45313,2.3125 0.85937,-1.28125 1.57812,-2.28125 l 3.5,-4.90625 h 4.1875 l -7.15625,9.76562 7.70313,10.98438 h -4.3125 l -4.25,-6.45313 -1.14063,-1.73437 -5.45312,8.1875 z m 22.34375,7.95312 v -28.70312 h 3.20312 v 2.70312 q 1.125,-1.57812 2.54688,-2.375 1.4375,-0.79687 3.46875,-0.79687 2.65625,0 4.6875,1.375 2.03125,1.35937 3.0625,3.85937 1.03125,2.48438 1.03125,5.45313 0,3.1875 -1.14063,5.73437 -1.14062,2.54688 -3.32812,3.90625 -2.17188,1.35938 -4.5625,1.35938 -1.76563,0 -3.17188,-0.73438 -1.39062,-0.75 -2.28125,-1.89062 v 10.10937 z m 3.1875,-18.20312 q 0,4 1.60937,5.92187 1.625,1.90625 3.9375,1.90625 2.34375,0 4,-1.98437 1.67188,-1.98438 1.67188,-6.14063 0,-3.96875 -1.625,-5.9375 -1.625,-1.96875 -3.89063,-1.96875 -2.25,0 -3.98437,2.09375 -1.71875,2.09375 -1.71875,6.10938 z m 19.01172,10.25 v -20.75 h 3.17187 v 3.15625 q 1.20313,-2.21875 2.23438,-2.92188 1.03125,-0.70312 2.25,-0.70312 1.78125,0 3.625,1.14062 l -1.21875,3.26563 q -1.28125,-0.76563 -2.57813,-0.76563 -1.15625,0 -2.07812,0.70313 -0.90625,0.6875 -1.29688,1.90625 -0.59375,1.875 -0.59375,4.10937 v 10.85938 z m 27.57031,-6.6875 3.625,0.45312 q -0.85938,3.1875 -3.1875,4.95313 -2.3125,1.75 -5.9375,1.75 -4.54688,0 -7.21875,-2.79688 -2.65625,-2.8125 -2.65625,-7.875 0,-5.23437 2.6875,-8.125 2.70312,-2.89062 7,-2.89062 4.15625,0 6.79687,2.84375 2.64063,2.82812 2.64063,7.96875 0,0.3125 -0.0312,0.9375 h -15.46875 q 0.20312,3.40625 1.9375,5.23437 1.73437,1.8125 4.34375,1.8125 1.92187,0 3.28125,-1.01562 1.375,-1.01563 2.1875,-3.25 z m -11.54688,-5.67188 h 11.57813 q -0.23438,-2.625 -1.32813,-3.9375 -1.67187,-2.03125 -4.35937,-2.03125 -2.42188,0 -4.07813,1.625 -1.64062,1.625 -1.8125,4.34375 z m 18.1836,6.17188 3.46875,-0.54688 q 0.29687,2.07813 1.625,3.20313 1.34375,1.10937 3.75,1.10937 2.42187,0 3.59375,-0.98437 1.17187,-0.98438 1.17187,-2.3125 0,-1.20313 -1.03125,-1.875 -0.71875,-0.46875 -3.59375,-1.20313 -3.875,-0.96875 -5.375,-1.67187 -1.48437,-0.71875 -2.26562,-1.98438 -0.76563,-1.26562 -0.76563,-2.78125 0,-1.39062 0.64063,-2.5625 0.64062,-1.1875 1.73437,-1.96875 0.8125,-0.60937 2.21875,-1.03125 1.42188,-0.42187 3.04688,-0.42187 2.4375,0 4.28125,0.70312 1.85937,0.70313 2.73436,1.90625 0.875,1.20313 1.20312,3.21875 l -3.43748,0.46875 q -0.23438,-1.60937 -1.35938,-2.5 -1.10937,-0.90625 -3.17187,-0.90625 -2.42188,0 -3.45313,0.8125 -1.03125,0.79688 -1.03125,1.875 0,0.67188 0.42188,1.21875 0.4375,0.57813 1.35937,0.9375 0.51563,0.20313 3.09375,0.90625 3.73438,1 5.20313,1.64063 1.48436,0.625 2.31248,1.84375 0.84375,1.20312 0.84375,3 0,1.75 -1.03125,3.3125 -1.01562,1.54687 -2.95311,2.40625 -1.92187,0.84375 -4.375,0.84375 -4.03125,0 -6.15625,-1.67188 -2.125,-1.6875 -2.70312,-4.98437 z m 19.99998,0 3.46875,-0.54688 q 0.29688,2.07813 1.625,3.20313 1.34375,1.10937 3.75,1.10937 2.42188,0 3.59375,-0.98437 1.17188,-0.98438 1.17188,-2.3125 0,-1.20313 -1.03125,-1.875 -0.71875,-0.46875 -3.59375,-1.20313 -3.875,-0.96875 -5.375,-1.67187 -1.48438,-0.71875 -2.26563,-1.98438 -0.76562,-1.26562 -0.76562,-2.78125 0,-1.39062 0.64062,-2.5625 0.64063,-1.1875 1.73438,-1.96875 0.8125,-0.60937 2.21875,-1.03125 1.42187,-0.42187 3.04687,-0.42187 2.4375,0 4.28125,0.70312 1.85938,0.70313 2.73438,1.90625 0.875,1.20313 1.20312,3.21875 l -3.4375,0.46875 q -0.23437,-1.60937 -1.35937,-2.5 -1.10938,-0.90625 -3.17188,-0.90625 -2.42187,0 -3.45312,0.8125 -1.03125,0.79688 -1.03125,1.875 0,0.67188 0.42187,1.21875 0.4375,0.57813 1.35938,0.9375 0.51562,0.20313 3.09375,0.90625 3.73437,1 5.20312,1.64063 1.48438,0.625 2.3125,1.84375 0.84375,1.20312 0.84375,3 0,1.75 -1.03125,3.3125 -1.01562,1.54687 -2.95312,2.40625 -1.92188,0.84375 -4.375,0.84375 -4.03125,0 -6.15625,-1.67188 -2.125,-1.6875 -2.70313,-4.98437 z m 35.60938,-0.5 3.625,0.45312 q -0.85938,3.1875 -3.1875,4.95313 -2.3125,1.75 -5.9375,1.75 -4.54688,0 -7.21875,-2.79688 -2.65625,-2.8125 -2.65625,-7.875 0,-5.23437 2.6875,-8.125 2.70312,-2.89062 7,-2.89062 4.15625,0 6.79687,2.84375 2.64063,2.82812 2.64063,7.96875 0,0.3125 -0.0312,0.9375 h -15.46875 q 0.20312,3.40625 1.9375,5.23437 1.73437,1.8125 4.34375,1.8125 1.92187,0 3.28125,-1.01562 1.375,-1.01563 2.1875,-3.25 z m -11.54688,-5.67188 h 11.57813 q -0.23438,-2.625 -1.32813,-3.9375 -1.67187,-2.03125 -4.35937,-2.03125 -2.42188,0 -4.07813,1.625 -1.64062,1.625 -1.8125,4.34375 z m 33.04297,12.35938 v -2.625 q -1.96875,3.09375 -5.79687,3.09375 -2.48438,0 -4.5625,-1.35938 -2.07813,-1.375 -3.21875,-3.82812 -1.14063,-2.45313 -1.14063,-5.64063 0,-3.09375 1.03125,-5.625 1.03125,-2.53125 3.09375,-3.875 2.07813,-1.35937 4.64063,-1.35937 1.875,0 3.32812,0.79687 1.46875,0.79688 2.39063,2.0625 v -10.28125 h 3.5 v 28.64063 z m -11.10937,-10.35938 q 0,3.98438 1.67187,5.96875 1.6875,1.96875 3.96875,1.96875 2.3125,0 3.92188,-1.875 1.60937,-1.89062 1.60937,-5.76562 0,-4.25 -1.64062,-6.23438 -1.64063,-2 -4.04688,-2 -2.34375,0 -3.92187,1.92188 -1.5625,1.90625 -1.5625,6.01562 z"
       id="path9"
       inkscape:connector-curvature="0"
       style="fill:#000000;fill-rule:nonzero" />
    <path
       d="m 175.94337,268.62064 3.625,0.45312 q -0.85938,3.1875 -3.1875,4.95313 -2.3125,1.75 -5.9375,1.75 -4.54688,0 -7.21875,-2.79688 -2.65625,-2.8125 -2.65625,-7.875 0,-5.23437 2.6875,-8.125 2.70312,-2.89062 7,-2.89062 4.15625,0 6.79687,2.84375 2.64063,2.82812 2.64063,7.96875 0,0.3125 -0.0312,0.9375 h -15.46875 q 0.20312,3.40625 1.9375,5.23437 1.73437,1.8125 4.34375,1.8125 1.92187,0 3.28125,-1.01562 1.375,-1.01563 2.1875,-3.25 z m -11.54688,-5.67188 h 11.57813 q -0.23438,-2.625 -1.32813,-3.9375 -1.67187,-2.03125 -4.35937,-2.03125 -2.42188,0 -4.07813,1.625 -1.64062,1.625 -1.8125,4.34375 z m 19.58985,12.35938 v -20.75 h 3.14062 v 2.92187 q 0.98438,-1.53125 2.59375,-2.45312 1.625,-0.9375 3.70313,-0.9375 2.29687,0 3.76562,0.96875 1.48438,0.95312 2.09375,2.67187 2.45313,-3.64062 6.40625,-3.64062 3.07813,0 4.73438,1.71875 1.67187,1.70312 1.67187,5.26562 v 14.23438 h -3.5 v -13.0625 q 0,-2.10938 -0.34375,-3.03125 -0.34375,-0.9375 -1.25,-1.5 -0.89062,-0.57813 -2.09375,-0.57813 -2.1875,0 -3.64062,1.46875 -1.4375,1.45313 -1.4375,4.65625 v 12.04688 h -3.51563 v -13.48438 q 0,-2.34375 -0.85937,-3.51562 -0.85938,-1.17188 -2.8125,-1.17188 -1.48438,0 -2.75,0.78125 -1.26563,0.78125 -1.82813,2.29688 -0.5625,1.5 -0.5625,4.32812 v 10.76563 z m 32.00781,-10.375 q 0,-5.76563 3.20313,-8.53125 2.67187,-2.3125 6.53125,-2.3125 4.26562,0 6.98437,2.8125 2.71875,2.79687 2.71875,7.73437 0,4.01563 -1.20312,6.3125 -1.20313,2.28125 -3.5,3.5625 -2.29688,1.26563 -5,1.26563 -4.35938,0 -7.04688,-2.79688 -2.6875,-2.79687 -2.6875,-8.04687 z m 3.60938,0 q 0,3.98437 1.73437,5.96875 1.75,1.98437 4.39063,1.98437 2.60937,0 4.34375,-1.98437 1.75,-2 1.75,-6.07813 0,-3.85937 -1.75,-5.82812 -1.75,-1.98438 -4.34375,-1.98438 -2.64063,0 -4.39063,1.96875 -1.73437,1.96875 -1.73437,5.95313 z m 27.62109,7.23437 0.51562,3.09375 q -1.48437,0.32813 -2.65625,0.32813 -1.92187,0 -2.98437,-0.60938 -1.04688,-0.60937 -1.48438,-1.59375 -0.42187,-0.98437 -0.42187,-4.15625 v -11.9375 h -2.57813 v -2.73437 h 2.57813 v -5.125 l 3.5,-2.10938 v 7.23438 h 3.53125 v 2.73437 h -3.53125 v 12.14063 q 0,1.5 0.1875,1.9375 0.1875,0.42187 0.59375,0.67187 0.42187,0.25 1.20312,0.25 0.59375,0 1.54688,-0.125 z m 3.45703,-21.45312 v -4.04688 h 3.51563 v 4.04688 z m 0,24.59375 v -20.75 h 3.51563 v 20.75 z m 7.55858,-10.375 q 0,-5.76563 3.20312,-8.53125 2.67188,-2.3125 6.53125,-2.3125 4.26563,0 6.98438,2.8125 2.71875,2.79687 2.71875,7.73437 0,4.01563 -1.20313,6.3125 -1.20312,2.28125 -3.5,3.5625 -2.29687,1.26563 -5,1.26563 -4.35937,0 -7.04687,-2.79688 -2.6875,-2.79687 -2.6875,-8.04687 z m 3.60937,0 q 0,3.98437 1.73438,5.96875 1.75,1.98437 4.39062,1.98437 2.60938,0 4.34375,-1.98437 1.75,-2 1.75,-6.07813 0,-3.85937 -1.75,-5.82812 -1.75,-1.98438 -4.34375,-1.98438 -2.64062,0 -4.39062,1.96875 -1.73438,1.96875 -1.73438,5.95313 z m 19.94922,10.375 v -20.75 h 3.15625 v 2.95312 q 2.29688,-3.42187 6.60938,-3.42187 1.875,0 3.4375,0.6875 1.57812,0.67187 2.35937,1.76562 0.78125,1.09375 1.09375,2.59375 0.20313,0.96875 0.20313,3.42188 v 12.75 h -3.51563 v -12.625 q 0,-2.14063 -0.42187,-3.20313 -0.40625,-1.0625 -1.45313,-1.70312 -1.04687,-0.64063 -2.45312,-0.64063 -2.23438,0 -3.875,1.4375 -1.625,1.42188 -1.625,5.40625 v 11.32813 z"
       id="path11"
       inkscape:connector-curvature="0"
       style="fill:#000000;fill-rule:nonzero" />
    <path
       d="m 607.70654,174.33823 h 279.1811 V 290.6847 h -279.1811 z"
       id="path13"
       inkscape:connector-curvature="0"
       style="fill:#000000;fill-opacity:0;fill-rule:evenodd" />
    <path
       d="m 639.2873,221.73822 v -28.64063 h 20.70312 v 3.39063 h -16.92187 v 8.76562 h 15.84375 v 3.35938 h -15.84375 v 9.75 h 17.57812 v 3.375 z m 23.80469,0 7.57812,-10.78125 -7.01562,-9.96875 h 4.39062 l 3.1875,4.875 q 0.90625,1.375 1.45313,2.3125 0.85937,-1.28125 1.57812,-2.28125 l 3.5,-4.90625 h 4.1875 l -7.15625,9.76562 7.70313,10.98438 h -4.3125 l -4.25,-6.45313 -1.14063,-1.73437 -5.45312,8.1875 z m 22.34375,7.95312 v -28.70312 h 3.20312 v 2.70312 q 1.125,-1.57812 2.54688,-2.375 1.4375,-0.79687 3.46875,-0.79687 2.65625,0 4.6875,1.375 2.03125,1.35937 3.0625,3.85937 1.03125,2.48438 1.03125,5.45313 0,3.1875 -1.14063,5.73437 -1.14062,2.54688 -3.32812,3.90625 -2.17188,1.35938 -4.5625,1.35938 -1.76563,0 -3.17188,-0.73438 -1.39062,-0.75 -2.28125,-1.89062 v 10.10937 z m 3.1875,-18.20312 q 0,4 1.60937,5.92187 1.625,1.90625 3.9375,1.90625 2.34375,0 4,-1.98437 1.67188,-1.98438 1.67188,-6.14063 0,-3.96875 -1.625,-5.9375 -1.625,-1.96875 -3.89063,-1.96875 -2.25,0 -3.98437,2.09375 -1.71875,2.09375 -1.71875,6.10938 z m 33.26172,3.5625 3.625,0.45312 q -0.85938,3.1875 -3.1875,4.95313 -2.3125,1.75 -5.9375,1.75 -4.54688,0 -7.21875,-2.79688 -2.65625,-2.8125 -2.65625,-7.875 0,-5.23437 2.6875,-8.125 2.70312,-2.89062 7,-2.89062 4.15625,0 6.79687,2.84375 2.64063,2.82812 2.64063,7.96875 0,0.3125 -0.0312,0.9375 h -15.46875 q 0.20312,3.40625 1.9375,5.23437 1.73437,1.8125 4.34375,1.8125 1.92187,0 3.28125,-1.01562 1.375,-1.01563 2.1875,-3.25 z m -11.54688,-5.67188 h 11.57813 q -0.23438,-2.625 -1.32813,-3.9375 -1.67187,-2.03125 -4.35937,-2.03125 -2.42188,0 -4.07813,1.625 -1.64062,1.625 -1.8125,4.34375 z m 19.54297,12.35938 v -20.75 h 3.17188 v 3.15625 q 1.20312,-2.21875 2.23437,-2.92188 1.03125,-0.70312 2.25,-0.70312 1.78125,0 3.625,1.14062 l -1.21875,3.26563 q -1.28125,-0.76563 -2.57812,-0.76563 -1.15625,0 -2.07813,0.70313 -0.90625,0.6875 -1.29687,1.90625 -0.59375,1.875 -0.59375,4.10937 v 10.85938 z m 13.38281,-24.59375 v -4.04688 h 3.51563 v 4.04688 z m 0,24.59375 v -20.75 h 3.51563 v 20.75 z m 23.07422,-6.6875 3.625,0.45312 q -0.85937,3.1875 -3.1875,4.95313 -2.3125,1.75 -5.9375,1.75 -4.54687,0 -7.21875,-2.79688 -2.65625,-2.8125 -2.65625,-7.875 0,-5.23437 2.6875,-8.125 2.70313,-2.89062 7,-2.89062 4.15625,0 6.79688,2.84375 2.64062,2.82812 2.64062,7.96875 0,0.3125 -0.0312,0.9375 h -15.46875 q 0.20313,3.40625 1.9375,5.23437 1.73438,1.8125 4.34375,1.8125 1.92188,0 3.28125,-1.01562 1.375,-1.01563 2.1875,-3.25 z m -11.54687,-5.67188 h 11.57812 q -0.23437,-2.625 -1.32812,-3.9375 -1.67188,-2.03125 -4.35938,-2.03125 -2.42187,0 -4.07812,1.625 -1.64063,1.625 -1.8125,4.34375 z m 19.58984,12.35938 v -20.75 h 3.15625 v 2.95312 q 2.29688,-3.42187 6.60938,-3.42187 1.875,0 3.4375,0.6875 1.57812,0.67187 2.35937,1.76562 0.78125,1.09375 1.09375,2.59375 0.20313,0.96875 0.20313,3.42188 v 12.75 h -3.51563 v -12.625 q 0,-2.14063 -0.42187,-3.20313 -0.40625,-1.0625 -1.45313,-1.70312 -1.04687,-0.64063 -2.45312,-0.64063 -2.23438,0 -3.875,1.4375 -1.625,1.42188 -1.625,5.40625 v 11.32813 z m 35.77735,-7.59375 3.45312,0.4375 q -0.5625,3.57812 -2.90625,5.60937 -2.32812,2.01563 -5.71875,2.01563 -4.26562,0 -6.85937,-2.78125 -2.57813,-2.78125 -2.57813,-7.98438 0,-3.35937 1.10938,-5.875 1.125,-2.51562 3.39062,-3.78125 2.28125,-1.26562 4.95313,-1.26562 3.375,0 5.51562,1.71875 2.15625,1.70312 2.76563,4.84375 l -3.42188,0.53125 q -0.48437,-2.09375 -1.73437,-3.14063 -1.23438,-1.0625 -2.98438,-1.0625 -2.65625,0 -4.32812,1.90625 -1.65625,1.90625 -1.65625,6.03125 0,4.17188 1.59375,6.07813 1.60937,1.89062 4.1875,1.89062 2.07812,0 3.45312,-1.26562 1.39063,-1.28125 1.76563,-3.90625 z m 20.67187,0.90625 3.625,0.45312 q -0.85937,3.1875 -3.1875,4.95313 -2.3125,1.75 -5.9375,1.75 -4.54687,0 -7.21875,-2.79688 -2.65625,-2.8125 -2.65625,-7.875 0,-5.23437 2.6875,-8.125 2.70313,-2.89062 7,-2.89062 4.15625,0 6.79688,2.84375 2.64062,2.82812 2.64062,7.96875 0,0.3125 -0.0312,0.9375 h -15.46875 q 0.20313,3.40625 1.9375,5.23437 1.73438,1.8125 4.34375,1.8125 1.92188,0 3.28125,-1.01562 1.375,-1.01563 2.1875,-3.25 z m -11.54687,-5.67188 h 11.57812 q -0.23437,-2.625 -1.32812,-3.9375 -1.67188,-2.03125 -4.35938,-2.03125 -2.42187,0 -4.07812,1.625 -1.64063,1.625 -1.8125,4.34375 z m 33.04297,12.35938 v -2.625 q -1.96875,3.09375 -5.79688,3.09375 -2.48437,0 -4.5625,-1.35938 -2.07812,-1.375 -3.21875,-3.82812 -1.14062,-2.45313 -1.14062,-5.64063 0,-3.09375 1.03125,-5.625 1.03125,-2.53125 3.09375,-3.875 2.07812,-1.35937 4.64062,-1.35937 1.875,0 3.32813,0.79687 1.46875,0.79688 2.39062,2.0625 v -10.28125 h 3.5 v 28.64063 z m -11.10938,-10.35938 q 0,3.98438 1.67188,5.96875 1.6875,1.96875 3.96875,1.96875 2.3125,0 3.92187,-1.875 1.60938,-1.89062 1.60938,-5.76562 0,-4.25 -1.64063,-6.23438 -1.64062,-2 -4.04687,-2 -2.34375,0 -3.92188,1.92188 -1.5625,1.90625 -1.5625,6.01562 z"
       id="path15"
       inkscape:connector-curvature="0"
       style="fill:#000000;fill-rule:nonzero" />
    <path
       d="m 692.98846,263.05072 3.625,0.45312 q -0.85937,3.1875 -3.1875,4.95313 -2.3125,1.75 -5.9375,1.75 -4.54687,0 -7.21875,-2.79688 -2.65625,-2.8125 -2.65625,-7.875 0,-5.23437 2.6875,-8.125 2.70313,-2.89062 7,-2.89062 4.15625,0 6.79688,2.84375 2.64062,2.82812 2.64062,7.96875 0,0.3125 -0.0312,0.9375 h -15.46875 q 0.20313,3.40625 1.9375,5.23437 1.73438,1.8125 4.34375,1.8125 1.92188,0 3.28125,-1.01562 1.375,-1.01563 2.1875,-3.25 z m -11.54687,-5.67188 h 11.57812 q -0.23437,-2.625 -1.32812,-3.9375 -1.67188,-2.03125 -4.35938,-2.03125 -2.42187,0 -4.07812,1.625 -1.64063,1.625 -1.8125,4.34375 z m 19.58984,12.35938 v -20.75 h 3.14062 v 2.92187 q 0.98438,-1.53125 2.59375,-2.45312 1.625,-0.9375 3.70313,-0.9375 2.29687,0 3.76562,0.96875 1.48438,0.95312 2.09375,2.67187 2.45313,-3.64062 6.40625,-3.64062 3.07813,0 4.73438,1.71875 1.67187,1.70312 1.67187,5.26562 v 14.23438 h -3.5 v -13.0625 q 0,-2.10938 -0.34375,-3.03125 -0.34375,-0.9375 -1.25,-1.5 -0.89062,-0.57813 -2.09375,-0.57813 -2.1875,0 -3.64062,1.46875 -1.4375,1.45313 -1.4375,4.65625 v 12.04688 h -3.51563 v -13.48438 q 0,-2.34375 -0.85937,-3.51562 -0.85938,-1.17188 -2.8125,-1.17188 -1.48438,0 -2.75,0.78125 -1.26563,0.78125 -1.82813,2.29688 -0.5625,1.5 -0.5625,4.32812 v 10.76563 z m 32.00781,-10.375 q 0,-5.76563 3.20313,-8.53125 2.67187,-2.3125 6.53125,-2.3125 4.26562,0 6.98437,2.8125 2.71875,2.79687 2.71875,7.73437 0,4.01563 -1.20312,6.3125 -1.20313,2.28125 -3.5,3.5625 -2.29688,1.26563 -5,1.26563 -4.35938,0 -7.04688,-2.79688 -2.6875,-2.79687 -2.6875,-8.04687 z m 3.60938,0 q 0,3.98437 1.73437,5.96875 1.75,1.98437 4.39063,1.98437 2.60937,0 4.34375,-1.98437 1.75,-2 1.75,-6.07813 0,-3.85937 -1.75,-5.82812 -1.75,-1.98438 -4.34375,-1.98438 -2.64063,0 -4.39063,1.96875 -1.73437,1.96875 -1.73437,5.95313 z m 27.62109,7.23437 0.51562,3.09375 q -1.48437,0.32813 -2.65625,0.32813 -1.92187,0 -2.98437,-0.60938 -1.04688,-0.60937 -1.48438,-1.59375 -0.42187,-0.98437 -0.42187,-4.15625 v -11.9375 h -2.57813 v -2.73437 h 2.57813 v -5.125 l 3.5,-2.10938 v 7.23438 h 3.53125 v 2.73437 h -3.53125 v 12.14063 q 0,1.5 0.1875,1.9375 0.1875,0.42187 0.59375,0.67187 0.42187,0.25 1.20312,0.25 0.59375,0 1.54688,-0.125 z m 3.45703,-21.45312 v -4.04688 h 3.51563 v 4.04688 z m 0,24.59375 v -20.75 h 3.51563 v 20.75 z m 7.55859,-10.375 q 0,-5.76563 3.20313,-8.53125 2.67187,-2.3125 6.53125,-2.3125 4.26562,0 6.98437,2.8125 2.71875,2.79687 2.71875,7.73437 0,4.01563 -1.20312,6.3125 -1.20313,2.28125 -3.5,3.5625 -2.29688,1.26563 -5,1.26563 -4.35938,0 -7.04688,-2.79688 -2.6875,-2.79687 -2.6875,-8.04687 z m 3.60938,0 q 0,3.98437 1.73437,5.96875 1.75,1.98437 4.39063,1.98437 2.60937,0 4.34375,-1.98437 1.75,-2 1.75,-6.07813 0,-3.85937 -1.75,-5.82812 -1.75,-1.98438 -4.34375,-1.98438 -2.64063,0 -4.39063,1.96875 -1.73437,1.96875 -1.73437,5.95313 z m 19.94922,10.375 v -20.75 h 3.15625 v 2.95312 q 2.29687,-3.42187 6.60937,-3.42187 1.875,0 3.4375,0.6875 1.57813,0.67187 2.35938,1.76562 0.78125,1.09375 1.09375,2.59375 0.20312,0.96875 0.20312,3.42188 v 12.75 h -3.51562 v -12.625 q 0,-2.14063 -0.42188,-3.20313 -0.40625,-1.0625 -1.45312,-1.70312 -1.04688,-0.64063 -2.45313,-0.64063 -2.23437,0 -3.875,1.4375 -1.625,1.42188 -1.625,5.40625 v 11.32813 z"
       id="path17"
       inkscape:connector-curvature="0"
       style="fill:#000000;fill-rule:nonzero" />
    <path
       d="m 379.10446,200.34645 h 219.3386"
       id="path19"
       inkscape:connector-curvature="0"
       style="fill:#000000;fill-opacity:0;fill-rule:evenodd" />
    <path
       d="m 379.10446,200.34645 h 195.3386"
       id="path21"
       inkscape:connector-curvature="0"
       style="fill-rule:evenodd;stroke:#595959;stroke-width:4;stroke-linecap:butt;stroke-linejoin:round" />
    <path
       d="m 574.44305,206.95338 18.15234,-6.60693 -18.15234,-6.60692 z"
       id="path23"
       inkscape:connector-curvature="0"
       style="fill:#595959;fill-rule:evenodd;stroke:#595959;stroke-width:4;stroke-linecap:butt" />
    <path
       d="M 595.39496,255.67455 378.45007,254.4462"
       id="path25"
       inkscape:connector-curvature="0"
       style="fill:#000000;fill-opacity:0;fill-rule:evenodd" />
    <path
       d="M 595.39496,255.67455 402.44971,254.58208"
       id="path27"
       inkscape:connector-curvature="0"
       style="fill-rule:evenodd;stroke:#595959;stroke-width:4;stroke-linecap:butt;stroke-linejoin:round" />
    <path
       d="m 402.48712,247.97525 -18.18951,6.50406 18.11468,6.70959 z"
       id="path29"
       inkscape:connector-curvature="0"
       style="fill:#595959;fill-rule:evenodd;stroke:#595959;stroke-width:4;stroke-linecap:butt" />
  </g>
  <rect
     style="opacity:1;fill:none;fill-opacity:1;stroke:#ffffff;stroke-width:4.93910742;stroke-miterlimit:4;stroke-dasharray:none;stroke-dashoffset:10.28661251;stroke-opacity:1"
     id="rect41"
     width="726.2724"
     height="127.24548"
     x="2.4695537"
     y="2.4695537"
     clip-path="url(#clipPath25)" />
</svg>
