<?xml version="1.0" encoding="UTF-8" standalone="no"?>
<svg
   xmlns:dc="http://purl.org/dc/elements/1.1/"
   xmlns:cc="http://creativecommons.org/ns#"
   xmlns:rdf="http://www.w3.org/1999/02/22-rdf-syntax-ns#"
   xmlns:svg="http://www.w3.org/2000/svg"
   xmlns="http://www.w3.org/2000/svg"
   xmlns:sodipodi="http://sodipodi.sourceforge.net/DTD/sodipodi-0.dtd"
   xmlns:inkscape="http://www.inkscape.org/namespaces/inkscape"
   version="1.1"
   viewBox="0 0 466.23752 361.1529"
   stroke-miterlimit="10"
   id="svg97"
   sodipodi:docname="MLTraining.svg"
   width="466.23752"
   height="361.15289"
   style="fill:none;stroke:none;stroke-linecap:square;stroke-miterlimit:10"
   inkscape:version="0.92.5 (2060ec1f9f, 2020-04-08)">
  <metadata
     id="metadata103">
    <rdf:RDF>
      <cc:Work
         rdf:about="">
        <dc:format>image/svg+xml</dc:format>
        <dc:type
           rdf:resource="http://purl.org/dc/dcmitype/StillImage" />
        <dc:title></dc:title>
      </cc:Work>
    </rdf:RDF>
  </metadata>
  <defs
     id="defs101">
    <clipPath
       clipPathUnits="userSpaceOnUse"
       id="clipPath107">
      <rect
         style="opacity:1;fill:none;fill-opacity:1;stroke:#000000;stroke-width:7.7237792;stroke-miterlimit:4;stroke-dasharray:none;stroke-dashoffset:10.28661251;stroke-opacity:1"
         id="rect109"
         width="478.15149"
         height="393.60065"
         x="70.138779"
         y="91.962875" />
    </clipPath>
    <clipPath
       clipPathUnits="userSpaceOnUse"
       id="clipPath58">
      <rect
         style="opacity:1;fill:#ffffff;fill-opacity:1;stroke:#ffffff;stroke-width:1;stroke-miterlimit:4;stroke-dasharray:none;stroke-dashoffset:10.28661251;stroke-opacity:1"
         id="rect60"
         width="466.23752"
         height="361.15289"
         x="71.346649"
         y="96.629631" />
    </clipPath>
  </defs>
  <sodipodi:namedview
     pagecolor="#ffffff"
     bordercolor="#666666"
     borderopacity="1"
     objecttolerance="10"
     gridtolerance="10"
     guidetolerance="10"
     inkscape:pageopacity="0"
     inkscape:pageshadow="2"
     inkscape:window-width="1371"
     inkscape:window-height="887"
     id="namedview99"
     showgrid="false"
     fit-margin-top="0"
     fit-margin-left="0"
     fit-margin-right="0"
     fit-margin-bottom="0"
     inkscape:zoom="0.82790419"
     inkscape:cx="544.64069"
     inkscape:cy="339.66472"
     inkscape:window-x="0"
     inkscape:window-y="0"
     inkscape:window-maximized="0"
     inkscape:current-layer="svg97" />
  <clipPath
     id="gee2ccda177_0_60.0">
    <path
       d="M 0,0 H 960 V 540 H 0 Z"
       id="path2"
       inkscape:connector-curvature="0"
       style="clip-rule:nonzero" />
  </clipPath>
  <g
     clip-path="url(#clipPath58)"
     id="g95"
     transform="translate(-71.346649,-96.629631)">
    <path
       d="M 0,0 H 960 V 540 H 0 Z"
       id="path5"
       inkscape:connector-curvature="0"
       style="fill:#ffffff;fill-rule:evenodd" />
    <path
       d="m 91.267715,413.96866 v 0 c 0,-4.27921 3.468979,-7.7482 7.748184,-7.7482 H 270.54315 c 2.05496,0 4.02573,0.81635 5.47879,2.26941 1.45306,1.45306 2.26941,3.42386 2.26941,5.47879 v 30.99182 c 0,4.27921 -3.469,7.74817 -7.7482,7.74817 H 99.015899 c -4.279205,0 -7.748184,-3.46896 -7.748184,-7.74817 z"
       id="path7"
       inkscape:connector-curvature="0"
       style="fill:#3d85c6;fill-rule:evenodd" />
    <path
       d="m 91.267715,413.96866 v 0 c 0,-4.27921 3.468979,-7.7482 7.748184,-7.7482 H 270.54315 c 2.05496,0 4.02573,0.81635 5.47879,2.26941 1.45306,1.45306 2.26941,3.42386 2.26941,5.47879 v 30.99182 c 0,4.27921 -3.469,7.74817 -7.7482,7.74817 H 99.015899 c -4.279205,0 -7.748184,-3.46896 -7.748184,-7.74817 z"
       id="path9"
       inkscape:connector-curvature="0"
       style="fill-rule:evenodd;stroke:#595959;stroke-width:1;stroke-linecap:butt;stroke-linejoin:round" />
    <path
       d="m 127.80646,431.47708 q 0.14063,0.25 0.23438,0.51562 0.10937,0.26563 0.20312,0.53125 0.10938,-0.28125 0.21875,-0.53125 0.10938,-0.26562 0.25,-0.51562 l 4.84375,-8.8125 q 0.14063,-0.23438 0.26563,-0.28125 0.14062,-0.0469 0.40625,-0.0469 h 1.4375 v 14.32813 h -1.70313 v -10.53125 q 0,-0.20313 0,-0.4375 0.0156,-0.25 0.0312,-0.5 l -4.90625,8.95312 q -0.25,0.45313 -0.70312,0.45313 h -0.28125 q -0.4375,0 -0.6875,-0.45313 l -5.03125,-8.98437 q 0.0312,0.26562 0.0469,0.51562 0.0156,0.25 0.0156,0.45313 v 10.53125 h -1.70313 v -14.32813 h 1.4375 q 0.26563,0 0.39063,0.0469 0.14062,0.0469 0.28125,0.28125 l 4.95312,8.8125 z m 15.1656,-5.10938 q 1.10938,0 2,0.375 0.89063,0.375 1.51563,1.0625 0.625,0.67188 0.95312,1.64063 0.34375,0.95312 0.34375,2.15625 0,1.1875 -0.34375,2.15625 -0.32812,0.95312 -0.95312,1.64062 -0.625,0.67188 -1.51563,1.04688 -0.89062,0.35937 -2,0.35937 -1.10937,0 -2.01562,-0.35937 -0.89063,-0.375 -1.51563,-1.04688 -0.625,-0.6875 -0.96875,-1.64062 -0.34375,-0.96875 -0.34375,-2.15625 0,-1.20313 0.34375,-2.15625 0.34375,-0.96875 0.96875,-1.64063 0.625,-0.6875 1.51563,-1.0625 0.90625,-0.375 2.01562,-0.375 z m 0,9.04688 q 1.5,0 2.23438,-1 0.75,-1.01563 0.75,-2.8125 0,-1.8125 -0.75,-2.8125 -0.73438,-1.01563 -2.23438,-1.01563 -0.76562,0 -1.32812,0.26563 -0.54688,0.25 -0.92188,0.75 -0.375,0.48437 -0.5625,1.20312 -0.1875,0.71875 -0.1875,1.60938 0,0.90625 0.1875,1.625 0.1875,0.70312 0.5625,1.1875 0.375,0.48437 0.92188,0.75 0.5625,0.25 1.32812,0.25 z m 14.15125,1.25 q -0.39063,0 -0.48438,-0.375 l -0.15625,-1.21875 q -0.65625,0.78125 -1.5,1.26562 -0.82812,0.46875 -1.90625,0.46875 -0.85937,0 -1.57812,-0.32812 -0.70313,-0.34375 -1.20313,-0.98438 -0.5,-0.65625 -0.78125,-1.625 -0.26562,-0.96875 -0.26562,-2.23437 0,-1.125 0.29687,-2.07813 0.29688,-0.96875 0.85938,-1.67187 0.57812,-0.71875 1.375,-1.125 0.8125,-0.40625 1.84375,-0.40625 0.9375,0 1.59375,0.3125 0.65625,0.3125 1.1875,0.89062 v -5.625 h 1.78125 v 14.73438 z m -3.45313,-1.29688 q 0.875,0 1.51563,-0.39062 0.65625,-0.40625 1.21875,-1.14063 v -4.90625 q -0.5,-0.65625 -1.09375,-0.92187 -0.57813,-0.26563 -1.28125,-0.26563 -1.42188,0 -2.1875,1.01563 -0.75,1 -0.75,2.875 0,0.98437 0.17187,1.70312 0.17188,0.70313 0.5,1.15625 0.32813,0.45313 0.79688,0.67188 0.48437,0.20312 1.10937,0.20312 z m 11.50812,-9 q 0.90625,0 1.67188,0.3125 0.78125,0.29688 1.34375,0.875 0.5625,0.57813 0.875,1.42188 0.3125,0.84375 0.3125,1.92187 0,0.42188 -0.0937,0.5625 -0.0937,0.14063 -0.34375,0.14063 h -6.73438 q 0.0156,0.96875 0.25,1.67187 0.25,0.70313 0.67188,1.1875 0.42187,0.46875 1,0.70313 0.57812,0.23437 1.29687,0.23437 0.67188,0 1.15625,-0.14062 0.48438,-0.15625 0.82813,-0.34375 0.35937,-0.1875 0.59375,-0.32813 0.23437,-0.15625 0.40625,-0.15625 0.21875,0 0.34375,0.17188 l 0.5,0.64062 q -0.34375,0.40625 -0.79688,0.70313 -0.45312,0.28125 -0.98437,0.48437 -0.53125,0.1875 -1.09375,0.28125 -0.54688,0.0937 -1.10938,0.0937 -1.04687,0 -1.9375,-0.34375 -0.875,-0.35937 -1.53125,-1.04687 -0.64062,-0.6875 -1,-1.6875 -0.35937,-1.01563 -0.35937,-2.32813 0,-1.0625 0.32812,-1.98437 0.32813,-0.92188 0.9375,-1.59375 0.60938,-0.67188 1.48438,-1.0625 0.89062,-0.39063 1.98437,-0.39063 z m 0.0469,1.3125 q -1.29688,0 -2.04688,0.75 -0.73437,0.75 -0.90625,2.0625 h 5.5 q 0,-0.625 -0.17187,-1.125 -0.15625,-0.51562 -0.5,-0.89062 -0.32813,-0.375 -0.79688,-0.57813 -0.46875,-0.21875 -1.07812,-0.21875 z m 8.40187,-5.75 v 14.73438 H 171.8458 V 421.9302 Z m 8.97999,0 v 14.73438 h -1.78125 V 421.9302 Z m 7.15125,4.4375 q 0.90625,0 1.67187,0.3125 0.78125,0.29688 1.34375,0.875 0.5625,0.57813 0.875,1.42188 0.3125,0.84375 0.3125,1.92187 0,0.42188 -0.0937,0.5625 -0.0937,0.14063 -0.34375,0.14063 h -6.73437 q 0.0156,0.96875 0.25,1.67187 0.25,0.70313 0.67187,1.1875 0.42188,0.46875 1,0.70313 0.57813,0.23437 1.29688,0.23437 0.67187,0 1.15625,-0.14062 0.48437,-0.15625 0.82812,-0.34375 0.35938,-0.1875 0.59375,-0.32813 0.23438,-0.15625 0.40625,-0.15625 0.21875,0 0.34375,0.17188 l 0.5,0.64062 q -0.34375,0.40625 -0.79687,0.70313 -0.45313,0.28125 -0.98438,0.48437 -0.53125,0.1875 -1.09375,0.28125 -0.54687,0.0937 -1.10937,0.0937 -1.04688,0 -1.9375,-0.34375 -0.875,-0.35937 -1.53125,-1.04687 -0.64063,-0.6875 -1,-1.6875 -0.35938,-1.01563 -0.35938,-2.32813 0,-1.0625 0.32813,-1.98437 0.32812,-0.92188 0.9375,-1.59375 0.60937,-0.67188 1.48437,-1.0625 0.89063,-0.39063 1.98438,-0.39063 z m 0.0469,1.3125 q -1.29687,0 -2.04687,0.75 -0.73438,0.75 -0.90625,2.0625 h 5.5 q 0,-0.625 -0.17188,-1.125 -0.15625,-0.51562 -0.5,-0.89062 -0.32812,-0.375 -0.79687,-0.57813 -0.46875,-0.21875 -1.07813,-0.21875 z m 13.87062,8.98438 h -0.79687 q -0.26563,0 -0.42188,-0.0781 -0.15625,-0.0781 -0.20312,-0.34375 l -0.20313,-0.9375 q -0.40625,0.35938 -0.78125,0.64063 -0.375,0.28125 -0.79687,0.48437 -0.42188,0.1875 -0.90625,0.28125 -0.46875,0.10938 -1.04688,0.10938 -0.59375,0 -1.10937,-0.15625 -0.51563,-0.17188 -0.89063,-0.5 -0.375,-0.32813 -0.60937,-0.82813 -0.21875,-0.51562 -0.21875,-1.20312 0,-0.59375 0.32812,-1.14063 0.32813,-0.5625 1.0625,-0.98437 0.73438,-0.4375 1.92188,-0.71875 1.20312,-0.28125 2.92187,-0.3125 v -0.79688 q 0,-1.17187 -0.51562,-1.78125 -0.5,-0.60937 -1.48438,-0.60937 -0.65625,0 -1.10937,0.17187 -0.4375,0.15625 -0.76563,0.375 -0.32812,0.20313 -0.5625,0.375 -0.23437,0.15625 -0.45312,0.15625 -0.1875,0 -0.32813,-0.0937 -0.125,-0.0937 -0.20312,-0.23437 l -0.32813,-0.57813 q 0.84375,-0.8125 1.8125,-1.20312 0.96875,-0.40625 2.15625,-0.40625 0.84375,0 1.5,0.28125 0.67188,0.28125 1.10938,0.78125 0.45312,0.5 0.6875,1.21875 0.23437,0.70312 0.23437,1.54687 z m -4.625,-1.09375 q 0.46875,0 0.85938,-0.0937 0.39062,-0.0937 0.73437,-0.26563 0.34375,-0.17187 0.65625,-0.42187 0.3125,-0.25 0.625,-0.57813 v -2.10937 q -1.23437,0.0469 -2.09375,0.20312 -0.85937,0.15625 -1.40625,0.40625 -0.53125,0.25 -0.78125,0.59375 -0.25,0.32813 -0.25,0.75 0,0.40625 0.125,0.70313 0.14063,0.28125 0.35938,0.46875 0.21875,0.17187 0.51562,0.26562 0.3125,0.0781 0.65625,0.0781 z m 7.31186,1.09375 v -10.125 h 1.03125 q 0.28125,0 0.39063,0.10937 0.10937,0.10938 0.15625,0.375 l 0.125,1.57813 q 0.51562,-1.0625 1.28125,-1.65625 0.76562,-0.59375 1.79687,-0.59375 0.42188,0 0.75,0.0937 0.34375,0.0937 0.64063,0.26562 l -0.23438,1.32813 q -0.0781,0.25 -0.3125,0.25 -0.14062,0 -0.4375,-0.0937 -0.28125,-0.0937 -0.79687,-0.0937 -0.9375,0 -1.5625,0.54687 -0.625,0.53125 -1.04688,1.5625 v 6.45313 z m 8.06,0 v -10.125 h 1.0625 q 0.39063,0 0.48438,0.35937 l 0.14062,1.10938 q 0.65625,-0.73438 1.46875,-1.1875 0.82813,-0.45313 1.89063,-0.45313 0.82812,0 1.45312,0.28125 0.64063,0.28125 1.0625,0.78125 0.4375,0.5 0.65625,1.21875 0.21875,0.70313 0.21875,1.5625 v 6.45313 h -1.78125 v -6.45313 q 0,-1.14062 -0.53125,-1.78125 -0.51562,-0.64062 -1.59375,-0.64062 -0.79687,0 -1.48437,0.39062 -0.6875,0.375 -1.26563,1.03125 v 7.45313 z m 13.10437,-10.125 v 10.125 h -1.78125 v -10.125 z m 0.40625,-3.1875 q 0,0.26562 -0.10937,0.5 -0.10938,0.21875 -0.28125,0.39062 -0.17188,0.17188 -0.40625,0.28125 -0.23438,0.0937 -0.48438,0.0937 -0.26562,0 -0.5,-0.0937 -0.21875,-0.10937 -0.39062,-0.28125 -0.17188,-0.17187 -0.28125,-0.39062 -0.0937,-0.23438 -0.0937,-0.5 0,-0.25 0.0937,-0.48438 0.10937,-0.25 0.28125,-0.42187 0.17187,-0.17188 0.39062,-0.26563 0.23438,-0.10937 0.5,-0.10937 0.25,0 0.48438,0.10937 0.23437,0.0937 0.40625,0.26563 0.17187,0.17187 0.28125,0.42187 0.10937,0.23438 0.10937,0.48438 z m 2.72937,13.3125 v -10.125 h 1.0625 q 0.39063,0 0.48438,0.35937 l 0.14062,1.10938 q 0.65625,-0.73438 1.46875,-1.1875 0.82813,-0.45313 1.89063,-0.45313 0.82812,0 1.45312,0.28125 0.64063,0.28125 1.0625,0.78125 0.4375,0.5 0.65625,1.21875 0.21875,0.70313 0.21875,1.5625 v 6.45313 h -1.78125 v -6.45313 q 0,-1.14062 -0.53125,-1.78125 -0.51562,-0.64062 -1.59375,-0.64062 -0.79687,0 -1.48437,0.39062 -0.6875,0.375 -1.26563,1.03125 v 7.45313 z M 245.2045,426.3677 q 0.65625,0 1.23438,0.14063 0.57812,0.14062 1.04687,0.42187 h 2.75 v 0.67188 q 0,0.32812 -0.42187,0.40625 l -1.15625,0.17187 q 0.34375,0.64063 0.34375,1.4375 0,0.75 -0.29688,1.35938 -0.28125,0.59375 -0.78125,1.03125 -0.5,0.42187 -1.20312,0.65625 -0.6875,0.23437 -1.51563,0.23437 -0.71875,0 -1.34375,-0.17187 -0.32812,0.20312 -0.5,0.4375 -0.15625,0.21875 -0.15625,0.4375 0,0.35937 0.28125,0.54687 0.29688,0.1875 0.78125,0.26563 0.48438,0.0781 1.09375,0.10937 0.60938,0.0156 1.23438,0.0625 0.64062,0.0312 1.25,0.15625 0.60937,0.10938 1.09375,0.35938 0.48437,0.25 0.76562,0.6875 0.29688,0.4375 0.29688,1.14062 0,0.64063 -0.32813,1.25 -0.32812,0.60938 -0.9375,1.07813 -0.60937,0.48437 -1.48437,0.76562 -0.875,0.29688 -1.98438,0.29688 -1.125,0 -1.95312,-0.23438 -0.82813,-0.21875 -1.39063,-0.59375 -0.54687,-0.35937 -0.82812,-0.84375 -0.26563,-0.48437 -0.26563,-1.01562 0,-0.75 0.46875,-1.26563 0.48438,-0.53125 1.3125,-0.84375 -0.4375,-0.20312 -0.6875,-0.53125 -0.25,-0.34375 -0.25,-0.89062 0,-0.23438 0.0781,-0.46875 0.0781,-0.23438 0.23437,-0.45313 0.17188,-0.23437 0.40625,-0.4375 0.25,-0.21875 0.5625,-0.375 -0.75,-0.42187 -1.17187,-1.10937 -0.42188,-0.70313 -0.42188,-1.64063 0,-0.73437 0.28125,-1.32812 0.28125,-0.60938 0.79688,-1.03125 0.51562,-0.4375 1.21875,-0.65625 0.70312,-0.23438 1.54687,-0.23438 z m 3.15625,10.84375 q 0,-0.375 -0.21875,-0.60937 -0.20312,-0.23438 -0.5625,-0.35938 -0.35937,-0.125 -0.82812,-0.17187 -0.46875,-0.0625 -1,-0.0781 -0.51563,-0.0312 -1.0625,-0.0625 -0.53125,-0.0312 -1.01563,-0.10937 -0.57812,0.26562 -0.9375,0.65625 -0.34375,0.39062 -0.34375,0.92187 0,0.34375 0.17188,0.64063 0.17187,0.29687 0.53125,0.5 0.35937,0.21875 0.90625,0.34375 0.54687,0.125 1.28125,0.125 0.73437,0 1.29687,-0.125 0.5625,-0.125 0.95313,-0.375 0.40625,-0.23438 0.60937,-0.5625 0.21875,-0.32813 0.21875,-0.73438 z m -3.15625,-5.5 q 0.53125,0 0.9375,-0.14062 0.42188,-0.15625 0.70313,-0.42188 0.28125,-0.28125 0.42187,-0.65625 0.14063,-0.375 0.14063,-0.8125 0,-0.9375 -0.5625,-1.48437 -0.5625,-0.54688 -1.64063,-0.54688 -1.07812,0 -1.64062,0.54688 -0.5625,0.54687 -0.5625,1.48437 0,0.4375 0.14062,0.8125 0.14063,0.375 0.42188,0.65625 0.28125,0.26563 0.6875,0.42188 0.42187,0.14062 0.95312,0.14062 z"
       id="path11"
       inkscape:connector-curvature="0"
       style="fill:#ffffff;fill-rule:nonzero" />
    <path
       d="m 894,506.63953 h 48.69293 v 24.72443 H 894 Z"
       id="path13"
       inkscape:connector-curvature="0"
       style="fill:#000000;fill-opacity:0;fill-rule:evenodd" />
    <path
       d="m 916.4295,520.17957 q 0.35937,-0.48438 0.70312,-0.71875 0.34375,-0.23438 0.75,-0.35938 0.40625,-0.125 0.84375,-0.125 0.82813,0 1.5,0.39063 0.67188,0.39062 1.01563,1.07812 0.35937,0.67188 0.35937,1.51563 0,0.92187 -0.40625,1.73437 -0.40625,0.8125 -1.09375,1.26563 -0.6875,0.4375 -1.6875,0.4375 -1.71875,0 -2.5625,-1.39063 -0.82812,-1.39062 -0.82812,-3.4375 0,-1.35937 0.40625,-2.59375 0.40625,-1.25 1.23437,-1.96875 0.82813,-0.71875 2.28125,-0.71875 0.45313,0 0.85938,0.0625 0.42187,0.0469 1.29687,0.29688 v 1.125 q -1.35937,-0.53125 -2.23437,-0.53125 -1.28125,0 -1.85938,1.09375 -0.57812,1.09375 -0.57812,2.84375 z m 3.89062,2.03125 q 0,-1.14063 -0.53125,-1.71875 -0.53125,-0.59375 -1.32812,-0.59375 -0.64063,0 -1.3125,0.48437 -0.67188,0.46875 -0.67188,1.39063 0,0.92187 0.46875,1.79687 0.46875,0.875 1.5625,0.875 0.79688,0 1.29688,-0.57812 0.51562,-0.59375 0.51562,-1.65625 z"
       id="path15"
       inkscape:connector-curvature="0"
       style="fill:#595959;fill-rule:nonzero" />
    <path
       d="M 238.08447,100.62992 H 383.84823 V 147.1181 H 238.08447 Z"
       id="path17"
       inkscape:connector-curvature="0"
       style="fill:#000000;fill-opacity:0;fill-rule:evenodd" />
    <path
       d="m 246.81885,125.54992 v -13.48437 h 1.92187 v 12.04687 h 6.0625 v 1.4375 z m 15.10382,-1.25 q -0.79687,0.73438 -1.57812,1.10938 -0.78125,0.375 -1.51563,0.375 -1.0625,0 -1.96875,-0.6875 -0.89062,-0.70313 -0.89062,-2.03125 0,-1.45313 1.25,-2.40625 1.26562,-0.95313 4.03125,-0.95313 h 0.40625 v -1.20312 q 0,-0.70313 -0.1875,-1.03125 -0.1875,-0.32813 -0.59375,-0.5 -0.40625,-0.1875 -1,-0.1875 -1.40625,0 -3.04688,0.875 v -1.48438 q 1.8125,-0.73437 3.40625,-0.73437 0.875,0 1.60938,0.28125 0.73437,0.26562 1.17187,0.875 0.4375,0.59375 0.4375,1.90625 v 4.48437 q 0,0.75 0.10938,1.01563 0.125,0.25 0.34375,0.39062 0.21875,0.14063 0.5,0.14063 0.10937,0 0.34375,-0.0469 l 0.125,1 q -0.60938,0.29688 -1.34375,0.29688 -0.5,0 -0.95313,-0.3125 -0.45312,-0.32813 -0.65625,-1.17188 z m -0.26562,-0.98437 v -2.5625 l -0.5625,-0.0156 q -1.42188,0 -2.375,0.54688 -0.95313,0.54687 -0.95313,1.48437 0,0.65625 0.46875,1.10938 0.46875,0.4375 1.09375,0.4375 0.5625,0 1.14063,-0.25 0.59375,-0.25 1.1875,-0.75 z m 5.4747,2.34375 v -14.5 h 1.79687 v 6.35937 q 0.54688,-1.04687 1.375,-1.5625 0.82813,-0.51562 1.92188,-0.51562 1.84375,0 2.84375,1.34375 1,1.34375 1,3.51562 0,2.34375 -1.14063,3.92188 -1.125,1.5625 -3.09375,1.5625 -0.5625,0 -1.09375,-0.14063 -0.51562,-0.14062 -0.92187,-0.39062 -0.40625,-0.26563 -0.89063,-0.82813 l -0.21875,1.23438 z m 1.79687,-2.46875 q 0.92188,0.8125 1.46875,1.03125 0.54688,0.20312 1.17188,0.20312 1.3125,0 1.9375,-1.10937 0.64062,-1.10938 0.64062,-2.82813 0,-1.60937 -0.5625,-2.54687 -0.54687,-0.9375 -1.73437,-0.9375 -0.73438,0 -1.46875,0.40625 -0.73438,0.40625 -1.45313,1.21875 z m 17.19528,2.04687 q -1.8125,0.54688 -3.09375,0.54688 -2.29687,0 -3.625,-1.54688 -1.3125,-1.5625 -1.3125,-3.67187 0,-1.40625 0.57813,-2.65625 0.57812,-1.26563 1.51562,-1.875 0.95313,-0.60938 2.23438,-0.60938 1.70312,0 2.71875,1.23438 1.03125,1.23437 1.03125,3.6875 l -0.0156,0.53125 h -6.23437 q 0.14062,1.3125 0.5625,2.03125 0.42187,0.70312 1.10937,1.10937 0.70313,0.39063 1.78125,0.39063 0.54688,0 1.07813,-0.0937 0.54687,-0.0937 1.67187,-0.5 z m -6.125,-5.70312 h 4.35938 q 0,-1.48438 -0.57813,-2.10938 -0.57812,-0.64062 -1.46875,-0.64062 -1.03125,0 -1.60937,0.6875 -0.57813,0.6875 -0.70313,2.0625 z m 9.26892,6.01562 V 111.1593 h 1.79688 v 14.39062 z m 5.39283,0 V 111.1593 h 1.79687 v 14.39062 z m 12.64282,-0.3125 q -1.8125,0.54688 -3.09375,0.54688 -2.29688,0 -3.625,-1.54688 -1.3125,-1.5625 -1.3125,-3.67187 0,-1.40625 0.57812,-2.65625 0.57813,-1.26563 1.51563,-1.875 0.95312,-0.60938 2.23437,-0.60938 1.70313,0 2.71875,1.23438 1.03125,1.23437 1.03125,3.6875 l -0.0156,0.53125 h -6.23438 q 0.14063,1.3125 0.5625,2.03125 0.42188,0.70312 1.10938,1.10937 0.70312,0.39063 1.78125,0.39063 0.54687,0 1.07812,-0.0937 0.54688,-0.0937 1.67188,-0.5 z m -6.125,-5.70312 h 4.35937 q 0,-1.48438 -0.57812,-2.10938 -0.57813,-0.64062 -1.46875,-0.64062 -1.03125,0 -1.60938,0.6875 -0.57812,0.6875 -0.70312,2.0625 z m 15.6127,6.01562 v -1.85937 q -0.54687,1.04687 -1.375,1.57812 -0.8125,0.51563 -1.92187,0.51563 -1.8125,0 -2.82813,-1.34375 -1,-1.34375 -1,-3.53125 0,-2.34375 1.125,-3.90625 1.125,-1.5625 3.09375,-1.5625 0.5625,0 1.07813,0.14062 0.53125,0.125 0.9375,0.375 0.40625,0.25 0.89062,0.82813 v -5.625 h 1.8125 v 14.39062 z m 0,-7.53125 q -0.92187,-0.82812 -1.46875,-1.03125 -0.54687,-0.20312 -1.17187,-0.20312 -1.3125,0 -1.95313,1.10937 -0.625,1.09375 -0.625,2.84375 0,1.60938 0.5625,2.54688 0.5625,0.92187 1.73438,0.92187 0.75,0 1.48437,-0.40625 0.73438,-0.42187 1.4375,-1.23437 z m 17.64508,7.53125 v -1.85937 q -0.54687,1.04687 -1.375,1.57812 -0.8125,0.51563 -1.92187,0.51563 -1.8125,0 -2.82813,-1.34375 -1,-1.34375 -1,-3.53125 0,-2.34375 1.125,-3.90625 1.125,-1.5625 3.09375,-1.5625 0.5625,0 1.07813,0.14062 0.53125,0.125 0.9375,0.375 0.40625,0.25 0.89062,0.82813 v -5.625 h 1.8125 v 14.39062 z m 0,-7.53125 q -0.92187,-0.82812 -1.46875,-1.03125 -0.54687,-0.20312 -1.17187,-0.20312 -1.3125,0 -1.95313,1.10937 -0.625,1.09375 -0.625,2.84375 0,1.60938 0.5625,2.54688 0.5625,0.92187 1.73438,0.92187 0.75,0 1.48437,-0.40625 0.73438,-0.42187 1.4375,-1.23437 z m 10.49216,6.28125 q -0.79688,0.73438 -1.57813,1.10938 -0.78125,0.375 -1.51562,0.375 -1.0625,0 -1.96875,-0.6875 -0.89063,-0.70313 -0.89063,-2.03125 0,-1.45313 1.25,-2.40625 1.26563,-0.95313 4.03125,-0.95313 h 0.40625 v -1.20312 q 0,-0.70313 -0.1875,-1.03125 -0.1875,-0.32813 -0.59375,-0.5 -0.40625,-0.1875 -1,-0.1875 -1.40625,0 -3.04687,0.875 v -1.48438 q 1.8125,-0.73437 3.40625,-0.73437 0.875,0 1.60937,0.28125 0.73438,0.26562 1.17188,0.875 0.4375,0.59375 0.4375,1.90625 v 4.48437 q 0,0.75 0.10937,1.01563 0.125,0.25 0.34375,0.39062 0.21875,0.14063 0.5,0.14063 0.10938,0 0.34375,-0.0469 l 0.125,1 q -0.60937,0.29688 -1.34375,0.29688 -0.5,0 -0.95312,-0.3125 -0.45313,-0.32813 -0.65625,-1.17188 z m -0.26563,-0.98437 v -2.5625 l -0.5625,-0.0156 q -1.42187,0 -2.375,0.54688 -0.95312,0.54687 -0.95312,1.48437 0,0.65625 0.46875,1.10938 0.46875,0.4375 1.09375,0.4375 0.5625,0 1.14062,-0.25 0.59375,-0.25 1.1875,-0.75 z m 9.88095,2.23437 q -0.82812,0.23438 -1.4375,0.23438 -1.32812,0 -2.10937,-0.76563 -0.78125,-0.78125 -0.78125,-2.20312 v -5.8125 h -1.25 v -1.34375 h 1.25 v -1.79688 l 1.78125,-0.17187 v 1.96875 h 2.59375 v 1.34375 h -2.59375 v 5.48437 q 0,1.04688 0.40625,1.5 0.40625,0.4375 1.28125,0.4375 0.34375,0 0.85937,-0.10937 z m 7.66538,-1.25 q -0.79688,0.73438 -1.57813,1.10938 -0.78125,0.375 -1.51562,0.375 -1.0625,0 -1.96875,-0.6875 -0.89063,-0.70313 -0.89063,-2.03125 0,-1.45313 1.25,-2.40625 1.26563,-0.95313 4.03125,-0.95313 h 0.40625 v -1.20312 q 0,-0.70313 -0.1875,-1.03125 -0.1875,-0.32813 -0.59375,-0.5 -0.40625,-0.1875 -1,-0.1875 -1.40625,0 -3.04687,0.875 v -1.48438 q 1.8125,-0.73437 3.40625,-0.73437 0.875,0 1.60937,0.28125 0.73438,0.26562 1.17188,0.875 0.4375,0.59375 0.4375,1.90625 v 4.48437 q 0,0.75 0.10937,1.01563 0.125,0.25 0.34375,0.39062 0.21875,0.14063 0.5,0.14063 0.10938,0 0.34375,-0.0469 l 0.125,1 q -0.60937,0.29688 -1.34375,0.29688 -0.5,0 -0.95312,-0.3125 -0.45313,-0.32813 -0.65625,-1.17188 z m -0.26563,-0.98437 v -2.5625 l -0.5625,-0.0156 q -1.42187,0 -2.375,0.54688 -0.95312,0.54687 -0.95312,1.48437 0,0.65625 0.46875,1.10938 0.46875,0.4375 1.09375,0.4375 0.5625,0 1.14062,-0.25 0.59375,-0.25 1.1875,-0.75 z"
       id="path19"
       inkscape:connector-curvature="0"
       style="fill:#000000;fill-rule:nonzero" />
    <path
       d="m 378.1012,176.78937 h 112.03149 v 32.03149 H 378.1012 Z"
       id="path21"
       inkscape:connector-curvature="0"
       style="fill:#000000;fill-opacity:0;fill-rule:evenodd" />
    <path
       d="m 390.05432,201.70937 v -12.04688 h -4.79687 v -1.4375 h 11.48437 v 1.4375 h -4.78125 v 12.04688 z m 15.89053,-0.3125 q -1.8125,0.54687 -3.09375,0.54687 -2.29687,0 -3.625,-1.54687 -1.3125,-1.5625 -1.3125,-3.67188 0,-1.40625 0.57813,-2.65625 0.57812,-1.26562 1.51562,-1.875 0.95313,-0.60937 2.23438,-0.60937 1.70312,0 2.71875,1.23437 1.03125,1.23438 1.03125,3.6875 l -0.0156,0.53125 h -6.23437 q 0.14062,1.3125 0.5625,2.03125 0.42187,0.70313 1.10937,1.10938 0.70313,0.39062 1.78125,0.39062 0.54688,0 1.07813,-0.0937 0.54687,-0.0937 1.67187,-0.5 z m -6.125,-5.70313 h 4.35938 q 0,-1.48437 -0.57813,-2.10937 -0.57812,-0.64063 -1.46875,-0.64063 -1.03125,0 -1.60937,0.6875 -0.57813,0.6875 -0.70313,2.0625 z m 8.90958,5.67188 v -1.65625 q 1.75,0.875 3.04687,0.875 0.76563,0 1.28125,-0.40625 0.51563,-0.42188 0.51563,-1.0625 0,-0.39063 -0.25,-0.76563 -0.25,-0.35937 -1.17188,-0.75 l -1.04687,-0.45312 q -1.21875,-0.5 -1.76563,-1.15625 -0.5625,-0.65625 -0.5625,-1.60938 0,-1.20312 0.85938,-1.98437 0.875,-0.79688 2.5625,-0.79688 0.82812,0 2.04687,0.21875 l 0.375,0.0781 v 1.5 q -1.5,-0.45313 -2.39062,-0.45313 -0.85938,0 -1.29688,0.375 -0.42187,0.375 -0.42187,0.89063 0,0.39062 0.28125,0.71875 0.29687,0.32812 1.03125,0.64062 l 0.85937,0.35938 q 1.73438,0.75 2.21875,1.46875 0.46875,0.71875 0.46875,1.5625 0,0.8125 -0.4375,1.5 -0.4375,0.6875 -1.3125,1.09375 -0.85937,0.39062 -1.90625,0.39062 -1.23437,0 -2.98437,-0.57812 z m 14.27594,0.34375 q -0.82813,0.23437 -1.4375,0.23437 -1.32813,0 -2.10938,-0.76562 -0.78125,-0.78125 -0.78125,-2.20313 v -5.8125 h -1.25 v -1.34375 h 1.25 v -1.79687 l 1.78125,-0.17188 v 1.96875 h 2.59375 v 1.34375 h -2.59375 v 5.48438 q 0,1.04687 0.40625,1.5 0.40625,0.4375 1.28125,0.4375 0.34375,0 0.85938,-0.10938 z m 14.81833,0 v -1.85938 q -0.54688,1.04688 -1.375,1.57813 -0.8125,0.51562 -1.92188,0.51562 -1.8125,0 -2.82812,-1.34375 -1,-1.34375 -1,-3.53125 0,-2.34375 1.125,-3.90625 1.125,-1.5625 3.09375,-1.5625 0.5625,0 1.07812,0.14063 0.53125,0.125 0.9375,0.375 0.40625,0.25 0.89063,0.82812 v -5.625 h 1.8125 v 14.39063 z m 0,-7.53125 q -0.92188,-0.82813 -1.46875,-1.03125 -0.54688,-0.20313 -1.17188,-0.20313 -1.3125,0 -1.95312,1.10938 -0.625,1.09375 -0.625,2.84375 0,1.60937 0.5625,2.54687 0.5625,0.92188 1.73437,0.92188 0.75,0 1.48438,-0.40625 0.73437,-0.42188 1.4375,-1.23438 z m 10.49212,6.28125 q -0.79687,0.73437 -1.57812,1.10937 -0.78125,0.375 -1.51563,0.375 -1.0625,0 -1.96875,-0.6875 -0.89062,-0.70312 -0.89062,-2.03125 0,-1.45312 1.25,-2.40625 1.26562,-0.95312 4.03125,-0.95312 h 0.40625 v -1.20313 q 0,-0.70312 -0.1875,-1.03125 -0.1875,-0.32812 -0.59375,-0.5 -0.40625,-0.1875 -1,-0.1875 -1.40625,0 -3.04688,0.875 v -1.48437 q 1.8125,-0.73438 3.40625,-0.73438 0.875,0 1.60938,0.28125 0.73437,0.26563 1.17187,0.875 0.4375,0.59375 0.4375,1.90625 v 4.48438 q 0,0.75 0.10938,1.01562 0.125,0.25 0.34375,0.39063 0.21875,0.14062 0.5,0.14062 0.10937,0 0.34375,-0.0469 l 0.125,1 q -0.60938,0.29687 -1.34375,0.29687 -0.5,0 -0.95313,-0.3125 -0.45312,-0.32812 -0.65625,-1.17187 z m -0.26562,-0.98438 v -2.5625 l -0.5625,-0.0156 q -1.42188,0 -2.375,0.54687 -0.95313,0.54688 -0.95313,1.48438 0,0.65625 0.46875,1.10937 0.46875,0.4375 1.09375,0.4375 0.5625,0 1.14063,-0.25 0.59375,-0.25 1.1875,-0.75 z m 9.88098,2.23438 q -0.82812,0.23437 -1.4375,0.23437 -1.32812,0 -2.10937,-0.76562 -0.78125,-0.78125 -0.78125,-2.20313 v -5.8125 h -1.25 v -1.34375 h 1.25 v -1.79687 l 1.78125,-0.17188 v 1.96875 h 2.59375 v 1.34375 h -2.59375 v 5.48438 q 0,1.04687 0.40625,1.5 0.40625,0.4375 1.28125,0.4375 0.34375,0 0.85937,-0.10938 z m 7.66537,-1.25 q -0.79687,0.73437 -1.57812,1.10937 -0.78125,0.375 -1.51563,0.375 -1.0625,0 -1.96875,-0.6875 -0.89062,-0.70312 -0.89062,-2.03125 0,-1.45312 1.25,-2.40625 1.26562,-0.95312 4.03125,-0.95312 h 0.40625 v -1.20313 q 0,-0.70312 -0.1875,-1.03125 -0.1875,-0.32812 -0.59375,-0.5 -0.40625,-0.1875 -1,-0.1875 -1.40625,0 -3.04688,0.875 v -1.48437 q 1.8125,-0.73438 3.40625,-0.73438 0.875,0 1.60938,0.28125 0.73437,0.26563 1.17187,0.875 0.4375,0.59375 0.4375,1.90625 v 4.48438 q 0,0.75 0.10938,1.01562 0.125,0.25 0.34375,0.39063 0.21875,0.14062 0.5,0.14062 0.10937,0 0.34375,-0.0469 l 0.125,1 q -0.60938,0.29687 -1.34375,0.29687 -0.5,0 -0.95313,-0.3125 -0.45312,-0.32812 -0.65625,-1.17187 z m -0.26562,-0.98438 v -2.5625 l -0.5625,-0.0156 q -1.42188,0 -2.375,0.54687 -0.95313,0.54688 -0.95313,1.48438 0,0.65625 0.46875,1.10937 0.46875,0.4375 1.09375,0.4375 0.5625,0 1.14063,-0.25 0.59375,-0.25 1.1875,-0.75 z"
       id="path23"
       inkscape:connector-curvature="0"
       style="fill:#000000;fill-rule:nonzero" />
    <path
       d="m 77.15551,246.96654 h 89.41732 v 59.55907 H 77.15551 Z"
       id="path25"
       inkscape:connector-curvature="0"
       style="fill:#000000;fill-opacity:0;fill-rule:evenodd" />
    <path
       d="m 89.16319,271.88654 v -12.04687 h -4.796875 v -1.4375 H 95.85069 v 1.4375 h -4.78125 v 12.04687 z m 8.640549,0 v -9.89062 h 1.796875 v 1.85937 q 0.499996,-1 1.312496,-1.53125 0.82813,-0.54687 1.78125,-0.54687 0.26563,0 0.57813,0.0469 v 1.67188 q -0.45313,-0.15625 -0.82813,-0.15625 -0.84375,0 -1.5625,0.51562 -0.71875,0.5 -1.281246,1.51563 v 6.51562 z m 12.727511,-1.25 q -0.79688,0.73438 -1.57813,1.10938 -0.78125,0.375 -1.51562,0.375 -1.0625,0 -1.96875,-0.6875 -0.89063,-0.70313 -0.89063,-2.03125 0,-1.45313 1.25,-2.40625 1.26563,-0.95313 4.03125,-0.95313 h 0.40625 v -1.20312 q 0,-0.70313 -0.1875,-1.03125 -0.1875,-0.32813 -0.59375,-0.5 -0.40625,-0.1875 -1,-0.1875 -1.40625,0 -3.04687,0.875 v -1.48438 q 1.8125,-0.73437 3.40625,-0.73437 0.875,0 1.60937,0.28125 0.73438,0.26562 1.17188,0.875 0.4375,0.59375 0.4375,1.90625 v 4.48437 q 0,0.75 0.10937,1.01563 0.125,0.25 0.34375,0.39062 0.21875,0.14063 0.5,0.14063 0.10938,0 0.34375,-0.0469 l 0.125,1 q -0.60937,0.29688 -1.34375,0.29688 -0.5,0 -0.95312,-0.3125 -0.45313,-0.32813 -0.65625,-1.17188 z m -0.26563,-0.98437 v -2.5625 l -0.5625,-0.0156 q -1.42187,0 -2.375,0.54688 -0.95312,0.54687 -0.95312,1.48437 0,0.65625 0.46875,1.10938 0.46875,0.4375 1.09375,0.4375 0.5625,0 1.14062,-0.25 0.59375,-0.25 1.1875,-0.75 z m 5.47472,2.23437 v -9.89062 h 1.79687 v 9.89062 z m 0,-11.6875 v -1.79687 h 1.79687 v 1.79687 z m 5.39282,11.6875 v -9.89062 h 1.79688 v 1.85937 q 0.67187,-1 1.57812,-1.53125 0.90625,-0.54687 1.89063,-0.54687 1.25,0 2.03125,0.79687 0.79687,0.79688 0.79687,2.20313 v 7.10937 h -1.79687 v -6.51562 q 0,-1.03125 -0.1875,-1.35938 -0.1875,-0.32812 -0.51563,-0.5 -0.32812,-0.1875 -0.6875,-0.1875 -0.67187,0 -1.45312,0.40625 -0.76563,0.40625 -1.65625,1.75 v 6.40625 z m 11.57817,0 v -9.89062 h 1.79688 v 9.89062 z m 0,-11.6875 v -1.79687 h 1.79688 v 1.79687 z m 5.39282,11.6875 v -9.89062 h 1.79688 v 1.85937 q 0.67187,-1 1.57812,-1.53125 0.90625,-0.54687 1.89063,-0.54687 1.25,0 2.03125,0.79687 0.79687,0.79688 0.79687,2.20313 v 7.10937 h -1.79687 v -6.51562 q 0,-1.03125 -0.1875,-1.35938 -0.1875,-0.32812 -0.51563,-0.5 -0.32812,-0.1875 -0.6875,-0.1875 -0.67187,0 -1.45312,0.40625 -0.76563,0.40625 -1.65625,1.75 v 6.40625 z m 11.60943,3.28125 0.21875,-1.54687 q 1.54687,0.73437 3.07812,0.73437 1.70313,0 2.35938,-0.875 0.65625,-0.85937 0.65625,-2.34375 v -1.5625 q -0.39063,0.82813 -1.21875,1.45313 -0.82813,0.625 -2.01563,0.625 -2.03125,0 -2.96875,-1.45313 -0.92187,-1.46875 -0.92187,-3.32812 0,-1.40625 0.54687,-2.625 0.54688,-1.23438 1.51563,-1.84375 0.96875,-0.625 2.21875,-0.625 0.54687,0 1.03125,0.125 0.48437,0.125 0.89062,0.39062 0.42188,0.25 0.92188,0.82813 v -1.125 h 1.8125 v 7.1875 q 0,3.15625 -0.53125,4.3125 -0.51563,1.15625 -1.64063,1.67187 -1.10937,0.53125 -2.65625,0.53125 -0.5,0 -1.07812,-0.0625 -0.57813,-0.0469 -1.03125,-0.14062 -0.45313,-0.0781 -1.1875,-0.32813 z m 6.3125,-6.70312 v -4.10938 q -0.59375,-0.625 -1.23438,-0.92187 -0.64062,-0.3125 -1.34375,-0.3125 -1.1875,0 -1.92187,0.96875 -0.71875,0.95312 -0.71875,2.78125 0,1.42187 0.53125,2.32812 0.54687,0.89063 1.75,0.89063 0.79687,0 1.51562,-0.40625 0.73438,-0.40625 1.42188,-1.21875 z"
       id="path27"
       inkscape:connector-curvature="0"
       style="fill:#000000;fill-rule:nonzero" />
    <path
       d="m 109.86061,293.5428 v -1.65625 q 1.75,0.875 3.04687,0.875 0.76563,0 1.28125,-0.40625 0.51563,-0.42188 0.51563,-1.0625 0,-0.39063 -0.25,-0.76563 -0.25,-0.35937 -1.17188,-0.75 l -1.04687,-0.45312 q -1.21875,-0.5 -1.76563,-1.15625 -0.5625,-0.65625 -0.5625,-1.60938 0,-1.20312 0.85938,-1.98437 0.875,-0.79688 2.5625,-0.79688 0.82812,0 2.04687,0.21875 l 0.375,0.0781 v 1.5 q -1.5,-0.45313 -2.39062,-0.45313 -0.85938,0 -1.29688,0.375 -0.42187,0.375 -0.42187,0.89063 0,0.39062 0.28125,0.71875 0.29687,0.32812 1.03125,0.64062 l 0.85937,0.35938 q 1.73438,0.75 2.21875,1.46875 0.46875,0.71875 0.46875,1.5625 0,0.8125 -0.4375,1.5 -0.4375,0.6875 -1.3125,1.09375 -0.85937,0.39062 -1.90625,0.39062 -1.23437,0 -2.98437,-0.57812 z m 17.11969,0.0312 q -1.8125,0.54687 -3.09375,0.54687 -2.29687,0 -3.625,-1.54687 -1.3125,-1.5625 -1.3125,-3.67188 0,-1.40625 0.57813,-2.65625 0.57812,-1.26562 1.51562,-1.875 0.95313,-0.60937 2.23438,-0.60937 1.70312,0 2.71875,1.23437 1.03125,1.23438 1.03125,3.6875 l -0.0156,0.53125 h -6.23437 q 0.14062,1.3125 0.5625,2.03125 0.42187,0.70313 1.10937,1.10938 0.70313,0.39062 1.78125,0.39062 0.54688,0 1.07813,-0.0937 0.54687,-0.0937 1.67187,-0.5 z m -6.125,-5.70313 h 4.35938 q 0,-1.48437 -0.57813,-2.10937 -0.57812,-0.64063 -1.46875,-0.64063 -1.03125,0 -1.60937,0.6875 -0.57813,0.6875 -0.70313,2.0625 z m 13.67519,6.01563 q -0.82813,0.23437 -1.4375,0.23437 -1.32813,0 -2.10938,-0.76562 -0.78125,-0.78125 -0.78125,-2.20313 v -5.8125 h -1.25 v -1.34375 h 1.25 V 282.199 l 1.78125,-0.17188 v 1.96875 h 2.59375 v 1.34375 h -2.59375 v 5.48438 q 0,1.04687 0.40625,1.5 0.40625,0.4375 1.28125,0.4375 0.34375,0 0.85938,-0.10938 z"
       id="path29"
       inkscape:connector-curvature="0"
       style="fill:#000000;fill-rule:nonzero" />
    <path
       d="M 120.62406,176.78937 H 261.128 v 43.33859 H 120.62406 Z"
       id="path31"
       inkscape:connector-curvature="0"
       style="fill:#000000;fill-opacity:0;fill-rule:evenodd" />
    <path
       d="m 132.5772,201.70937 v -12.04688 h -4.79688 v -1.4375 h 11.48438 v 1.4375 h -4.78125 v 12.04688 z m 8.64055,0 v -9.89063 h 1.79687 v 1.85938 q 0.5,-1 1.3125,-1.53125 0.82813,-0.54688 1.78125,-0.54688 0.26563,0 0.57813,0.0469 v 1.67187 q -0.45313,-0.15625 -0.82813,-0.15625 -0.84375,0 -1.5625,0.51563 -0.71875,0.5 -1.28125,1.51562 v 6.51563 z m 12.72751,-1.25 q -0.79688,0.73437 -1.57813,1.10937 -0.78125,0.375 -1.51562,0.375 -1.0625,0 -1.96875,-0.6875 -0.89063,-0.70312 -0.89063,-2.03125 0,-1.45312 1.25,-2.40625 1.26563,-0.95312 4.03125,-0.95312 h 0.40625 v -1.20313 q 0,-0.70312 -0.1875,-1.03125 -0.1875,-0.32812 -0.59375,-0.5 -0.40625,-0.1875 -1,-0.1875 -1.40625,0 -3.04687,0.875 v -1.48437 q 1.8125,-0.73438 3.40625,-0.73438 0.875,0 1.60937,0.28125 0.73438,0.26563 1.17188,0.875 0.4375,0.59375 0.4375,1.90625 v 4.48438 q 0,0.75 0.10937,1.01562 0.125,0.25 0.34375,0.39063 0.21875,0.14062 0.5,0.14062 0.10938,0 0.34375,-0.0469 l 0.125,1 q -0.60937,0.29687 -1.34375,0.29687 -0.5,0 -0.95312,-0.3125 -0.45313,-0.32812 -0.65625,-1.17187 z m -0.26563,-0.98438 v -2.5625 l -0.5625,-0.0156 q -1.42187,0 -2.375,0.54687 -0.95312,0.54688 -0.95312,1.48438 0,0.65625 0.46875,1.10937 0.46875,0.4375 1.09375,0.4375 0.5625,0 1.14062,-0.25 0.59375,-0.25 1.1875,-0.75 z m 5.47472,2.23438 v -9.89063 h 1.79687 v 9.89063 z m 0,-11.6875 v -1.79688 h 1.79687 v 1.79688 z m 5.39282,11.6875 v -9.89063 h 1.79688 v 1.85938 q 0.67187,-1 1.57812,-1.53125 0.90625,-0.54688 1.89063,-0.54688 1.25,0 2.03125,0.79688 0.79687,0.79687 0.79687,2.20312 v 7.10938 h -1.79687 v -6.51563 q 0,-1.03125 -0.1875,-1.35937 -0.1875,-0.32813 -0.51563,-0.5 -0.32812,-0.1875 -0.6875,-0.1875 -0.67187,0 -1.45312,0.40625 -0.76563,0.40625 -1.65625,1.75 v 6.40625 z m 11.57817,0 v -9.89063 h 1.79688 v 9.89063 z m 0,-11.6875 v -1.79688 h 1.79688 v 1.79688 z m 5.39282,11.6875 v -9.89063 h 1.79688 v 1.85938 q 0.67187,-1 1.57812,-1.53125 0.90625,-0.54688 1.89063,-0.54688 1.25,0 2.03125,0.79688 0.79687,0.79687 0.79687,2.20312 v 7.10938 h -1.79687 v -6.51563 q 0,-1.03125 -0.1875,-1.35937 -0.1875,-0.32813 -0.51563,-0.5 -0.32812,-0.1875 -0.6875,-0.1875 -0.67187,0 -1.45312,0.40625 -0.76563,0.40625 -1.65625,1.75 v 6.40625 z m 11.60943,3.28125 0.21875,-1.54688 q 1.54687,0.73438 3.07812,0.73438 1.70313,0 2.35938,-0.875 0.65625,-0.85938 0.65625,-2.34375 v -1.5625 q -0.39063,0.82812 -1.21875,1.45312 -0.82813,0.625 -2.01563,0.625 -2.03125,0 -2.96875,-1.45312 -0.92187,-1.46875 -0.92187,-3.32813 0,-1.40625 0.54687,-2.625 0.54688,-1.23437 1.51563,-1.84375 0.96875,-0.625 2.21875,-0.625 0.54687,0 1.03125,0.125 0.48437,0.125 0.89062,0.39063 0.42188,0.25 0.92188,0.82812 v -1.125 h 1.8125 v 7.1875 q 0,3.15625 -0.53125,4.3125 -0.51563,1.15625 -1.64063,1.67188 -1.10937,0.53125 -2.65625,0.53125 -0.5,0 -1.07812,-0.0625 -0.57813,-0.0469 -1.03125,-0.14063 -0.45313,-0.0781 -1.1875,-0.32812 z m 6.3125,-6.70313 v -4.10937 q -0.59375,-0.625 -1.23438,-0.92188 -0.64062,-0.3125 -1.34375,-0.3125 -1.1875,0 -1.92187,0.96875 -0.71875,0.95313 -0.71875,2.78125 0,1.42188 0.53125,2.32813 0.54687,0.89062 1.75,0.89062 0.79687,0 1.51562,-0.40625 0.73438,-0.40625 1.42188,-1.21875 z m 17.53578,3.42188 v -1.85938 q -0.54688,1.04688 -1.375,1.57813 -0.8125,0.51562 -1.92188,0.51562 -1.8125,0 -2.82812,-1.34375 -1,-1.34375 -1,-3.53125 0,-2.34375 1.125,-3.90625 1.125,-1.5625 3.09375,-1.5625 0.5625,0 1.07812,0.14063 0.53125,0.125 0.9375,0.375 0.40625,0.25 0.89063,0.82812 v -5.625 h 1.8125 v 14.39063 z m 0,-7.53125 q -0.92188,-0.82813 -1.46875,-1.03125 -0.54688,-0.20313 -1.17188,-0.20313 -1.3125,0 -1.95312,1.10938 -0.625,1.09375 -0.625,2.84375 0,1.60937 0.5625,2.54687 0.5625,0.92188 1.73437,0.92188 0.75,0 1.48438,-0.40625 0.73437,-0.42188 1.4375,-1.23438 z m 10.49214,6.28125 q -0.79688,0.73437 -1.57813,1.10937 -0.78125,0.375 -1.51562,0.375 -1.0625,0 -1.96875,-0.6875 -0.89063,-0.70312 -0.89063,-2.03125 0,-1.45312 1.25,-2.40625 1.26563,-0.95312 4.03125,-0.95312 h 0.40625 v -1.20313 q 0,-0.70312 -0.1875,-1.03125 -0.1875,-0.32812 -0.59375,-0.5 -0.40625,-0.1875 -1,-0.1875 -1.40625,0 -3.04687,0.875 v -1.48437 q 1.8125,-0.73438 3.40625,-0.73438 0.875,0 1.60937,0.28125 0.73438,0.26563 1.17188,0.875 0.4375,0.59375 0.4375,1.90625 v 4.48438 q 0,0.75 0.10937,1.01562 0.125,0.25 0.34375,0.39063 0.21875,0.14062 0.5,0.14062 0.10938,0 0.34375,-0.0469 l 0.125,1 q -0.60937,0.29687 -1.34375,0.29687 -0.5,0 -0.95312,-0.3125 -0.45313,-0.32812 -0.65625,-1.17187 z m -0.26563,-0.98438 v -2.5625 l -0.5625,-0.0156 q -1.42187,0 -2.375,0.54687 -0.95312,0.54688 -0.95312,1.48438 0,0.65625 0.46875,1.10937 0.46875,0.4375 1.09375,0.4375 0.5625,0 1.14062,-0.25 0.59375,-0.25 1.1875,-0.75 z m 9.88097,2.23438 q -0.82812,0.23437 -1.4375,0.23437 -1.32812,0 -2.10937,-0.76562 -0.78125,-0.78125 -0.78125,-2.20313 v -5.8125 h -1.25 v -1.34375 h 1.25 v -1.79687 l 1.78125,-0.17188 v 1.96875 h 2.59375 v 1.34375 h -2.59375 v 5.48438 q 0,1.04687 0.40625,1.5 0.40625,0.4375 1.28125,0.4375 0.34375,0 0.85937,-0.10938 z m 7.66538,-1.25 q -0.79688,0.73437 -1.57813,1.10937 -0.78125,0.375 -1.51562,0.375 -1.0625,0 -1.96875,-0.6875 -0.89063,-0.70312 -0.89063,-2.03125 0,-1.45312 1.25,-2.40625 1.26563,-0.95312 4.03125,-0.95312 h 0.40625 v -1.20313 q 0,-0.70312 -0.1875,-1.03125 -0.1875,-0.32812 -0.59375,-0.5 -0.40625,-0.1875 -1,-0.1875 -1.40625,0 -3.04687,0.875 v -1.48437 q 1.8125,-0.73438 3.40625,-0.73438 0.875,0 1.60937,0.28125 0.73438,0.26563 1.17188,0.875 0.4375,0.59375 0.4375,1.90625 v 4.48438 q 0,0.75 0.10937,1.01562 0.125,0.25 0.34375,0.39063 0.21875,0.14062 0.5,0.14062 0.10938,0 0.34375,-0.0469 l 0.125,1 q -0.60937,0.29687 -1.34375,0.29687 -0.5,0 -0.95312,-0.3125 -0.45313,-0.32812 -0.65625,-1.17187 z m -0.26563,-0.98438 v -2.5625 l -0.5625,-0.0156 q -1.42187,0 -2.375,0.54687 -0.95312,0.54688 -0.95312,1.48438 0,0.65625 0.46875,1.10937 0.46875,0.4375 1.09375,0.4375 0.5625,0 1.14062,-0.25 0.59375,-0.25 1.1875,-0.75 z"
       id="path33"
       inkscape:connector-curvature="0"
       style="fill:#000000;fill-rule:nonzero" />
    <path
       d="m 182.52167,246.96654 h 112.03149 v 59.55907 H 182.52167 Z"
       id="path35"
       inkscape:connector-curvature="0"
       style="fill:#000000;fill-opacity:0;fill-rule:evenodd" />
    <path
       d="m 198.58945,271.88654 -5.09375,-13.48437 h 1.90625 l 4.17187,11.04687 4.03125,-11.04687 h 1.67188 l -4.89063,13.48437 z m 13.66637,-1.25 q -0.79688,0.73438 -1.57813,1.10938 -0.78125,0.375 -1.51562,0.375 -1.0625,0 -1.96875,-0.6875 -0.89063,-0.70313 -0.89063,-2.03125 0,-1.45313 1.25,-2.40625 1.26563,-0.95313 4.03125,-0.95313 h 0.40625 v -1.20312 q 0,-0.70313 -0.1875,-1.03125 -0.1875,-0.32813 -0.59375,-0.5 -0.40625,-0.1875 -1,-0.1875 -1.40625,0 -3.04687,0.875 v -1.48438 q 1.8125,-0.73437 3.40625,-0.73437 0.875,0 1.60937,0.28125 0.73438,0.26562 1.17188,0.875 0.4375,0.59375 0.4375,1.90625 v 4.48437 q 0,0.75 0.10937,1.01563 0.125,0.25 0.34375,0.39062 0.21875,0.14063 0.5,0.14063 0.10938,0 0.34375,-0.0469 l 0.125,1 q -0.60937,0.29688 -1.34375,0.29688 -0.5,0 -0.95312,-0.3125 -0.45313,-0.32813 -0.65625,-1.17188 z m -0.26563,-0.98437 v -2.5625 l -0.5625,-0.0156 q -1.42187,0 -2.375,0.54688 -0.95312,0.54687 -0.95312,1.48437 0,0.65625 0.46875,1.10938 0.46875,0.4375 1.09375,0.4375 0.5625,0 1.14062,-0.25 0.59375,-0.25 1.1875,-0.75 z m 5.47472,2.23437 v -14.39062 h 1.79687 v 14.39062 z m 5.39282,0 v -9.89062 h 1.79688 v 9.89062 z m 0,-11.6875 v -1.79687 h 1.79688 v 1.79687 z m 11.73657,11.6875 v -1.85937 q -0.54687,1.04687 -1.375,1.57812 -0.8125,0.51563 -1.92187,0.51563 -1.8125,0 -2.82813,-1.34375 -1,-1.34375 -1,-3.53125 0,-2.34375 1.125,-3.90625 1.125,-1.5625 3.09375,-1.5625 0.5625,0 1.07813,0.14062 0.53125,0.125 0.9375,0.375 0.40625,0.25 0.89062,0.82813 v -5.625 h 1.8125 v 14.39062 z m 0,-7.53125 q -0.92187,-0.82812 -1.46875,-1.03125 -0.54687,-0.20312 -1.17187,-0.20312 -1.3125,0 -1.95313,1.10937 -0.625,1.09375 -0.625,2.84375 0,1.60938 0.5625,2.54688 0.5625,0.92187 1.73438,0.92187 0.75,0 1.48437,-0.40625 0.73438,-0.42187 1.4375,-1.23437 z m 10.49214,6.28125 q -0.79687,0.73438 -1.57812,1.10938 -0.78125,0.375 -1.51563,0.375 -1.0625,0 -1.96875,-0.6875 -0.89062,-0.70313 -0.89062,-2.03125 0,-1.45313 1.25,-2.40625 1.26562,-0.95313 4.03125,-0.95313 h 0.40625 v -1.20312 q 0,-0.70313 -0.1875,-1.03125 -0.1875,-0.32813 -0.59375,-0.5 -0.40625,-0.1875 -1,-0.1875 -1.40625,0 -3.04688,0.875 v -1.48438 q 1.8125,-0.73437 3.40625,-0.73437 0.875,0 1.60938,0.28125 0.73437,0.26562 1.17187,0.875 0.4375,0.59375 0.4375,1.90625 v 4.48437 q 0,0.75 0.10938,1.01563 0.125,0.25 0.34375,0.39062 0.21875,0.14063 0.5,0.14063 0.10937,0 0.34375,-0.0469 l 0.125,1 q -0.60938,0.29688 -1.34375,0.29688 -0.5,0 -0.95313,-0.3125 -0.45312,-0.32813 -0.65625,-1.17188 z m -0.26562,-0.98437 v -2.5625 l -0.5625,-0.0156 q -1.42188,0 -2.375,0.54688 -0.95313,0.54687 -0.95313,1.48437 0,0.65625 0.46875,1.10938 0.46875,0.4375 1.09375,0.4375 0.5625,0 1.14063,-0.25 0.59375,-0.25 1.1875,-0.75 z m 9.88097,2.23437 q -0.82813,0.23438 -1.4375,0.23438 -1.32813,0 -2.10938,-0.76563 -0.78125,-0.78125 -0.78125,-2.20312 v -5.8125 h -1.25 v -1.34375 h 1.25 v -1.79688 l 1.78125,-0.17187 v 1.96875 h 2.59375 v 1.34375 h -2.59375 v 5.48437 q 0,1.04688 0.40625,1.5 0.40625,0.4375 1.28125,0.4375 0.34375,0 0.85938,-0.10937 z m 2.57162,0 v -9.89062 h 1.79688 v 9.89062 z m 0,-11.6875 v -1.79687 h 1.79688 v 1.79687 z m 9.33032,11.92188 q -1.42187,0 -2.46875,-0.57813 -1.03125,-0.57812 -1.64062,-1.82812 -0.60938,-1.25 -0.60938,-2.78125 0,-1.4375 0.54688,-2.67188 0.5625,-1.23437 1.625,-1.85937 1.0625,-0.625 2.54687,-0.625 1.40625,0 2.45313,0.57812 1.04687,0.5625 1.65625,1.8125 0.60937,1.25 0.60937,2.76563 0,1.46875 -0.57812,2.70312 -0.5625,1.23438 -1.60938,1.85938 -1.04687,0.625 -2.53125,0.625 z m 0,-1.35938 q 1.32813,0 2.0625,-0.98437 0.75,-1 0.75,-2.84375 0,-1.82813 -0.75,-2.8125 -0.73437,-1 -2.0625,-1 -1.32812,0 -2.07812,1 -0.73438,0.98437 -0.73438,2.8125 0,1.84375 0.73438,2.84375 0.75,0.98437 2.07812,0.98437 z m 7.52225,1.125 v -9.89062 h 1.79687 v 1.85937 q 0.67188,-1 1.57813,-1.53125 0.90625,-0.54687 1.89062,-0.54687 1.25,0 2.03125,0.79687 0.79688,0.79688 0.79688,2.20313 v 7.10937 h -1.79688 v -6.51562 q 0,-1.03125 -0.1875,-1.35938 -0.1875,-0.32812 -0.51562,-0.5 -0.32813,-0.1875 -0.6875,-0.1875 -0.67188,0 -1.45313,0.40625 -0.76562,0.40625 -1.65625,1.75 v 6.40625 z"
       id="path37"
       inkscape:connector-curvature="0"
       style="fill:#000000;fill-rule:nonzero" />
    <path
       d="m 226.53386,293.5428 v -1.65625 q 1.75,0.875 3.04687,0.875 0.76563,0 1.28125,-0.40625 0.51563,-0.42188 0.51563,-1.0625 0,-0.39063 -0.25,-0.76563 -0.25,-0.35937 -1.17188,-0.75 l -1.04687,-0.45312 q -1.21875,-0.5 -1.76563,-1.15625 -0.5625,-0.65625 -0.5625,-1.60938 0,-1.20312 0.85938,-1.98437 0.875,-0.79688 2.5625,-0.79688 0.82812,0 2.04687,0.21875 l 0.375,0.0781 v 1.5 q -1.5,-0.45313 -2.39062,-0.45313 -0.85938,0 -1.29688,0.375 -0.42187,0.375 -0.42187,0.89063 0,0.39062 0.28125,0.71875 0.29687,0.32812 1.03125,0.64062 l 0.85937,0.35938 q 1.73438,0.75 2.21875,1.46875 0.46875,0.71875 0.46875,1.5625 0,0.8125 -0.4375,1.5 -0.4375,0.6875 -1.3125,1.09375 -0.85937,0.39062 -1.90625,0.39062 -1.23437,0 -2.98437,-0.57812 z m 17.11969,0.0312 q -1.8125,0.54687 -3.09375,0.54687 -2.29688,0 -3.625,-1.54687 -1.3125,-1.5625 -1.3125,-3.67188 0,-1.40625 0.57812,-2.65625 0.57813,-1.26562 1.51563,-1.875 0.95312,-0.60937 2.23437,-0.60937 1.70313,0 2.71875,1.23437 1.03125,1.23438 1.03125,3.6875 l -0.0156,0.53125 h -6.23438 q 0.14063,1.3125 0.5625,2.03125 0.42188,0.70313 1.10938,1.10938 0.70312,0.39062 1.78125,0.39062 0.54687,0 1.07812,-0.0937 0.54688,-0.0937 1.67188,-0.5 z m -6.125,-5.70313 h 4.35937 q 0,-1.48437 -0.57812,-2.10937 -0.57813,-0.64063 -1.46875,-0.64063 -1.03125,0 -1.60938,0.6875 -0.57812,0.6875 -0.70312,2.0625 z m 13.67519,6.01563 q -0.82813,0.23437 -1.4375,0.23437 -1.32813,0 -2.10938,-0.76562 -0.78125,-0.78125 -0.78125,-2.20313 v -5.8125 h -1.25 v -1.34375 h 1.25 V 282.199 l 1.78125,-0.17188 v 1.96875 h 2.59375 v 1.34375 h -2.59375 v 5.48438 q 0,1.04687 0.40625,1.5 0.40625,0.4375 1.28125,0.4375 0.34375,0 0.85938,-0.10938 z"
       id="path39"
       inkscape:connector-curvature="0"
       style="fill:#000000;fill-rule:nonzero" />
    <path
       d="m 289.7815,429.6299 40.31497,-0.31494"
       id="path41"
       inkscape:connector-curvature="0"
       style="fill:#000000;fill-opacity:0;fill-rule:evenodd" />
    <path
       d="m 289.7815,429.6299 22.31552,-0.17432"
       id="path43"
       inkscape:connector-curvature="0"
       style="fill-rule:evenodd;stroke:#0b5394;stroke-width:3;stroke-linecap:butt;stroke-linejoin:round" />
    <path
       d="m 312.1357,434.4106 13.57516,-5.0614 -13.65258,-4.84866 z"
       id="path45"
       inkscape:connector-curvature="0"
       style="fill:#0b5394;fill-rule:evenodd;stroke:#0b5394;stroke-width:3;stroke-linecap:butt" />
    <path
       d="m 347.57874,413.96866 v 0 c 0,-4.27921 3.46899,-7.7482 7.7482,-7.7482 h 171.71622 c 2.05493,0 4.02576,0.81635 5.47882,2.26941 1.45306,1.45306 2.26935,3.42386 2.26935,5.47879 v 30.99182 c 0,4.27921 -3.46893,7.74817 -7.74817,7.74817 H 355.32694 c -4.27921,0 -7.7482,-3.46896 -7.7482,-7.74817 z"
       id="path47"
       inkscape:connector-curvature="0"
       style="fill:#3d85c6;fill-rule:evenodd" />
    <path
       d="m 347.57874,413.96866 v 0 c 0,-4.27921 3.46899,-7.7482 7.7482,-7.7482 h 171.71622 c 2.05493,0 4.02576,0.81635 5.47882,2.26941 1.45306,1.45306 2.26935,3.42386 2.26935,5.47879 v 30.99182 c 0,4.27921 -3.46893,7.74817 -7.74817,7.74817 H 355.32694 c -4.27921,0 -7.7482,-3.46896 -7.7482,-7.74817 z"
       id="path49"
       inkscape:connector-curvature="0"
       style="fill-rule:evenodd;stroke:#595959;stroke-width:1;stroke-linecap:butt;stroke-linejoin:round" />
    <path
       d="m 374.00198,431.47708 q 0.14062,0.25 0.23437,0.51562 0.10938,0.26563 0.20313,0.53125 0.10937,-0.28125 0.21875,-0.53125 0.10937,-0.26562 0.25,-0.51562 l 4.84375,-8.8125 q 0.14062,-0.23438 0.26562,-0.28125 0.14063,-0.0469 0.40625,-0.0469 h 1.4375 v 14.32813 h -1.70312 v -10.53125 q 0,-0.20313 0,-0.4375 0.0156,-0.25 0.0312,-0.5 l -4.90625,8.95312 q -0.25,0.45313 -0.70313,0.45313 h -0.28125 q -0.4375,0 -0.6875,-0.45313 l -5.03125,-8.98437 q 0.0312,0.26562 0.0469,0.51562 0.0156,0.25 0.0156,0.45313 v 10.53125 h -1.70312 v -14.32813 h 1.4375 q 0.26562,0 0.39062,0.0469 0.14063,0.0469 0.28125,0.28125 l 4.95313,8.8125 z m 15.16559,-5.10938 q 1.10937,0 2,0.375 0.89062,0.375 1.51562,1.0625 0.625,0.67188 0.95313,1.64063 0.34375,0.95312 0.34375,2.15625 0,1.1875 -0.34375,2.15625 -0.32813,0.95312 -0.95313,1.64062 -0.625,0.67188 -1.51562,1.04688 -0.89063,0.35937 -2,0.35937 -1.10938,0 -2.01563,-0.35937 -0.89062,-0.375 -1.51562,-1.04688 -0.625,-0.6875 -0.96875,-1.64062 -0.34375,-0.96875 -0.34375,-2.15625 0,-1.20313 0.34375,-2.15625 0.34375,-0.96875 0.96875,-1.64063 0.625,-0.6875 1.51562,-1.0625 0.90625,-0.375 2.01563,-0.375 z m 0,9.04688 q 1.5,0 2.23437,-1 0.75,-1.01563 0.75,-2.8125 0,-1.8125 -0.75,-2.8125 -0.73437,-1.01563 -2.23437,-1.01563 -0.76563,0 -1.32813,0.26563 -0.54687,0.25 -0.92187,0.75 -0.375,0.48437 -0.5625,1.20312 -0.1875,0.71875 -0.1875,1.60938 0,0.90625 0.1875,1.625 0.1875,0.70312 0.5625,1.1875 0.375,0.48437 0.92187,0.75 0.5625,0.25 1.32813,0.25 z m 14.15124,1.25 q -0.39062,0 -0.48437,-0.375 l -0.15625,-1.21875 q -0.65625,0.78125 -1.5,1.26562 -0.82813,0.46875 -1.90625,0.46875 -0.85938,0 -1.57813,-0.32812 -0.70312,-0.34375 -1.20312,-0.98438 -0.5,-0.65625 -0.78125,-1.625 -0.26563,-0.96875 -0.26563,-2.23437 0,-1.125 0.29688,-2.07813 0.29687,-0.96875 0.85937,-1.67187 0.57813,-0.71875 1.375,-1.125 0.8125,-0.40625 1.84375,-0.40625 0.9375,0 1.59375,0.3125 0.65625,0.3125 1.1875,0.89062 v -5.625 h 1.78125 v 14.73438 z m -3.45312,-1.29688 q 0.875,0 1.51562,-0.39062 0.65625,-0.40625 1.21875,-1.14063 v -4.90625 q -0.5,-0.65625 -1.09375,-0.92187 -0.57812,-0.26563 -1.28125,-0.26563 -1.42187,0 -2.1875,1.01563 -0.75,1 -0.75,2.875 0,0.98437 0.17188,1.70312 0.17187,0.70313 0.5,1.15625 0.32812,0.45313 0.79687,0.67188 0.48438,0.20312 1.10938,0.20312 z m 11.50812,-9 q 0.90625,0 1.67187,0.3125 0.78125,0.29688 1.34375,0.875 0.5625,0.57813 0.875,1.42188 0.3125,0.84375 0.3125,1.92187 0,0.42188 -0.0937,0.5625 -0.0937,0.14063 -0.34375,0.14063 h -6.73437 q 0.0156,0.96875 0.25,1.67187 0.25,0.70313 0.67187,1.1875 0.42188,0.46875 1,0.70313 0.57813,0.23437 1.29688,0.23437 0.67187,0 1.15625,-0.14062 0.48437,-0.15625 0.82812,-0.34375 0.35938,-0.1875 0.59375,-0.32813 0.23438,-0.15625 0.40625,-0.15625 0.21875,0 0.34375,0.17188 l 0.5,0.64062 q -0.34375,0.40625 -0.79687,0.70313 -0.45313,0.28125 -0.98438,0.48437 -0.53125,0.1875 -1.09375,0.28125 -0.54687,0.0937 -1.10937,0.0937 -1.04688,0 -1.9375,-0.34375 -0.875,-0.35937 -1.53125,-1.04687 -0.64063,-0.6875 -1,-1.6875 -0.35938,-1.01563 -0.35938,-2.32813 0,-1.0625 0.32813,-1.98437 0.32812,-0.92188 0.9375,-1.59375 0.60937,-0.67188 1.48437,-1.0625 0.89063,-0.39063 1.98438,-0.39063 z m 0.0469,1.3125 q -1.29687,0 -2.04687,0.75 -0.73438,0.75 -0.90625,2.0625 h 5.5 q 0,-0.625 -0.17188,-1.125 -0.15625,-0.51562 -0.5,-0.89062 -0.32812,-0.375 -0.79687,-0.57813 -0.46875,-0.21875 -1.07813,-0.21875 z m 8.40189,-5.75 v 14.73438 h -1.78125 V 421.9302 Z m 11.01123,4.4375 q 0.90625,0 1.67187,0.3125 0.78125,0.29688 1.34375,0.875 0.5625,0.57813 0.875,1.42188 0.3125,0.84375 0.3125,1.92187 0,0.42188 -0.0937,0.5625 -0.0937,0.14063 -0.34375,0.14063 h -6.73437 q 0.0156,0.96875 0.25,1.67187 0.25,0.70313 0.67187,1.1875 0.42188,0.46875 1,0.70313 0.57813,0.23437 1.29688,0.23437 0.67187,0 1.15625,-0.14062 0.48437,-0.15625 0.82812,-0.34375 0.35938,-0.1875 0.59375,-0.32813 0.23438,-0.15625 0.40625,-0.15625 0.21875,0 0.34375,0.17188 l 0.5,0.64062 q -0.34375,0.40625 -0.79687,0.70313 -0.45313,0.28125 -0.98438,0.48437 -0.53125,0.1875 -1.09375,0.28125 -0.54687,0.0937 -1.10937,0.0937 -1.04688,0 -1.9375,-0.34375 -0.875,-0.35937 -1.53125,-1.04687 -0.64063,-0.6875 -1,-1.6875 -0.35938,-1.01563 -0.35938,-2.32813 0,-1.0625 0.32813,-1.98437 0.32812,-0.92188 0.9375,-1.59375 0.60937,-0.67188 1.48437,-1.0625 0.89063,-0.39063 1.98438,-0.39063 z m 0.0469,1.3125 q -1.29687,0 -2.04687,0.75 -0.73438,0.75 -0.90625,2.0625 h 5.5 q 0,-0.625 -0.17188,-1.125 -0.15625,-0.51562 -0.5,-0.89062 -0.32812,-0.375 -0.79687,-0.57813 -0.46875,-0.21875 -1.07813,-0.21875 z m 4.89188,-1.14062 h 1.45312 q 0.20313,0 0.34375,0.10937 0.14063,0.10938 0.20313,0.25 l 2.57812,6.53125 q 0.14063,0.35938 0.21875,0.71875 0.0781,0.35938 0.14063,0.70313 0.0781,-0.34375 0.17187,-0.70313 0.0937,-0.35937 0.23438,-0.71875 l 2.59375,-6.53125 q 0.0625,-0.15625 0.1875,-0.25 0.14062,-0.10937 0.34375,-0.10937 h 1.39062 l -4.125,10.125 h -1.60937 z m 18.95874,10.125 h -0.79688 q -0.26562,0 -0.42187,-0.0781 -0.15625,-0.0781 -0.20313,-0.34375 l -0.20312,-0.9375 q -0.40625,0.35938 -0.78125,0.64063 -0.375,0.28125 -0.79688,0.48437 -0.42187,0.1875 -0.90625,0.28125 -0.46875,0.10938 -1.04687,0.10938 -0.59375,0 -1.10938,-0.15625 -0.51562,-0.17188 -0.89062,-0.5 -0.375,-0.32813 -0.60938,-0.82813 -0.21875,-0.51562 -0.21875,-1.20312 0,-0.59375 0.32813,-1.14063 0.32812,-0.5625 1.0625,-0.98437 0.73437,-0.4375 1.92187,-0.71875 1.20313,-0.28125 2.92188,-0.3125 v -0.79688 q 0,-1.17187 -0.51563,-1.78125 -0.5,-0.60937 -1.48437,-0.60937 -0.65625,0 -1.10938,0.17187 -0.4375,0.15625 -0.76562,0.375 -0.32813,0.20313 -0.5625,0.375 -0.23438,0.15625 -0.45313,0.15625 -0.1875,0 -0.32812,-0.0937 -0.125,-0.0937 -0.20313,-0.23437 l -0.32812,-0.57813 q 0.84375,-0.8125 1.8125,-1.20312 0.96875,-0.40625 2.15625,-0.40625 0.84375,0 1.5,0.28125 0.67187,0.28125 1.10937,0.78125 0.45313,0.5 0.6875,1.21875 0.23438,0.70312 0.23438,1.54687 z m -4.625,-1.09375 q 0.46875,0 0.85937,-0.0937 0.39063,-0.0937 0.73438,-0.26563 0.34375,-0.17187 0.65625,-0.42187 0.3125,-0.25 0.625,-0.57813 v -2.10937 q -1.23438,0.0469 -2.09375,0.20312 -0.85938,0.15625 -1.40625,0.40625 -0.53125,0.25 -0.78125,0.59375 -0.25,0.32813 -0.25,0.75 0,0.40625 0.125,0.70313 0.14062,0.28125 0.35937,0.46875 0.21875,0.17187 0.51563,0.26562 0.3125,0.0781 0.65625,0.0781 z m 9.29623,-13.64063 v 14.73438 h -1.78125 V 421.9302 Z m 4.6825,4.60938 v 6.45312 q 0,1.15625 0.53125,1.78125 0.53125,0.625 1.59375,0.625 0.78125,0 1.46875,-0.35937 0.70312,-0.375 1.28125,-1.03125 v -7.46875 h 1.78125 v 10.125 h -1.0625 q -0.39063,0 -0.48438,-0.375 l -0.14062,-1.07813 q -0.65625,0.71875 -1.48438,1.17188 -0.8125,0.4375 -1.875,0.4375 -0.82812,0 -1.46875,-0.26563 -0.625,-0.28125 -1.0625,-0.78125 -0.42187,-0.5 -0.64062,-1.20312 -0.21875,-0.71875 -0.21875,-1.57813 v -6.45312 z m 17.02624,10.125 h -0.79687 q -0.26563,0 -0.42188,-0.0781 -0.15625,-0.0781 -0.20312,-0.34375 l -0.20313,-0.9375 q -0.40625,0.35938 -0.78125,0.64063 -0.375,0.28125 -0.79687,0.48437 -0.42188,0.1875 -0.90625,0.28125 -0.46875,0.10938 -1.04688,0.10938 -0.59375,0 -1.10937,-0.15625 -0.51563,-0.17188 -0.89063,-0.5 -0.375,-0.32813 -0.60937,-0.82813 -0.21875,-0.51562 -0.21875,-1.20312 0,-0.59375 0.32812,-1.14063 0.32813,-0.5625 1.0625,-0.98437 0.73438,-0.4375 1.92188,-0.71875 1.20312,-0.28125 2.92187,-0.3125 v -0.79688 q 0,-1.17187 -0.51562,-1.78125 -0.5,-0.60937 -1.48438,-0.60937 -0.65625,0 -1.10937,0.17187 -0.4375,0.15625 -0.76563,0.375 -0.32812,0.20313 -0.5625,0.375 -0.23437,0.15625 -0.45312,0.15625 -0.1875,0 -0.32813,-0.0937 -0.125,-0.0937 -0.20312,-0.23437 l -0.32813,-0.57813 q 0.84375,-0.8125 1.8125,-1.20312 0.96875,-0.40625 2.15625,-0.40625 0.84375,0 1.5,0.28125 0.67188,0.28125 1.10938,0.78125 0.45312,0.5 0.6875,1.21875 0.23437,0.70312 0.23437,1.54687 z m -4.625,-1.09375 q 0.46875,0 0.85938,-0.0937 0.39062,-0.0937 0.73437,-0.26563 0.34375,-0.17187 0.65625,-0.42187 0.3125,-0.25 0.625,-0.57813 v -2.10937 q -1.23437,0.0469 -2.09375,0.20312 -0.85937,0.15625 -1.40625,0.40625 -0.53125,0.25 -0.78125,0.59375 -0.25,0.32813 -0.25,0.75 0,0.40625 0.125,0.70313 0.14063,0.28125 0.35938,0.46875 0.21875,0.17187 0.51562,0.26562 0.3125,0.0781 0.65625,0.0781 z m 10.38999,1.25 q -1.20313,0 -1.84375,-0.67188 -0.64063,-0.67187 -0.64063,-1.92187 v -6.20313 h -1.23437 q -0.15625,0 -0.26563,-0.0937 -0.10937,-0.0937 -0.10937,-0.29687 v -0.70313 l 1.65625,-0.21875 0.42187,-3.125 q 0.0156,-0.15625 0.125,-0.25 0.10938,-0.0937 0.28125,-0.0937 h 0.89063 v 3.48438 h 2.90625 v 1.29687 h -2.90625 v 6.07813 q 0,0.64062 0.3125,0.95312 0.3125,0.3125 0.8125,0.3125 0.26562,0 0.46875,-0.0781 0.21875,-0.0781 0.35937,-0.15625 0.15625,-0.0937 0.25,-0.17188 0.10938,-0.0781 0.1875,-0.0781 0.14063,0 0.25,0.17187 l 0.53125,0.84375 q -0.46875,0.4375 -1.125,0.6875 -0.64062,0.23438 -1.32812,0.23438 z m 6.36624,-10.28125 v 10.125 h -1.78125 v -10.125 z m 0.40625,-3.1875 q 0,0.26562 -0.10938,0.5 -0.10937,0.21875 -0.28125,0.39062 -0.17187,0.17188 -0.40625,0.28125 -0.23437,0.0937 -0.48437,0.0937 -0.26563,0 -0.5,-0.0937 -0.21875,-0.10937 -0.39063,-0.28125 -0.17187,-0.17187 -0.28125,-0.39062 -0.0937,-0.23438 -0.0937,-0.5 0,-0.25 0.0937,-0.48438 0.10938,-0.25 0.28125,-0.42187 0.17188,-0.17188 0.39063,-0.26563 0.23437,-0.10937 0.5,-0.10937 0.25,0 0.48437,0.10937 0.23438,0.0937 0.40625,0.26563 0.17188,0.17187 0.28125,0.42187 0.10938,0.23438 0.10938,0.48438 z m 6.83874,3.01562 q 1.10938,0 2,0.375 0.89063,0.375 1.51563,1.0625 0.625,0.67188 0.95312,1.64063 0.34375,0.95312 0.34375,2.15625 0,1.1875 -0.34375,2.15625 -0.32812,0.95312 -0.95312,1.64062 -0.625,0.67188 -1.51563,1.04688 -0.89062,0.35937 -2,0.35937 -1.10937,0 -2.01562,-0.35937 -0.89063,-0.375 -1.51563,-1.04688 -0.625,-0.6875 -0.96875,-1.64062 -0.34375,-0.96875 -0.34375,-2.15625 0,-1.20313 0.34375,-2.15625 0.34375,-0.96875 0.96875,-1.64063 0.625,-0.6875 1.51563,-1.0625 0.90625,-0.375 2.01562,-0.375 z m 0,9.04688 q 1.5,0 2.23438,-1 0.75,-1.01563 0.75,-2.8125 0,-1.8125 -0.75,-2.8125 -0.73438,-1.01563 -2.23438,-1.01563 -0.76562,0 -1.32812,0.26563 -0.54688,0.25 -0.92188,0.75 -0.375,0.48437 -0.5625,1.20312 -0.1875,0.71875 -0.1875,1.60938 0,0.90625 0.1875,1.625 0.1875,0.70312 0.5625,1.1875 0.375,0.48437 0.92188,0.75 0.5625,0.25 1.32812,0.25 z m 7.01062,1.25 v -10.125 h 1.0625 q 0.39063,0 0.48438,0.35937 l 0.14062,1.10938 q 0.65625,-0.73438 1.46875,-1.1875 0.82813,-0.45313 1.89063,-0.45313 0.82812,0 1.45312,0.28125 0.64063,0.28125 1.0625,0.78125 0.4375,0.5 0.65625,1.21875 0.21875,0.70313 0.21875,1.5625 v 6.45313 h -1.78125 v -6.45313 q 0,-1.14062 -0.53125,-1.78125 -0.51562,-0.64062 -1.59375,-0.64062 -0.79687,0 -1.48437,0.39062 -0.6875,0.375 -1.26563,1.03125 v 7.45313 z"
       id="path51"
       inkscape:connector-curvature="0"
       style="fill:#ffffff;fill-rule:nonzero" />
    <path
       d="m 209.07086,213.47717 17.57481,28.50394"
       id="path53"
       inkscape:connector-curvature="0"
       style="fill:#000000;fill-opacity:0;fill-rule:evenodd" />
    <path
       d="m 209.07086,213.47716 8.12784,13.18224"
       id="path55"
       inkscape:connector-curvature="0"
       style="fill-rule:evenodd;stroke:#0b5394;stroke-width:3;stroke-linecap:butt;stroke-linejoin:round" />
    <path
       d="m 212.9808,229.26004 11.36311,8.98791 -2.92732,-14.1892 z"
       id="path57"
       inkscape:connector-curvature="0"
       style="fill:#0b5394;fill-rule:evenodd;stroke:#0b5394;stroke-width:3;stroke-linecap:butt" />
    <path
       d="m 157.59152,213.36 -19.49606,25.85826"
       id="path59"
       inkscape:connector-curvature="0"
       style="fill:#000000;fill-opacity:0;fill-rule:evenodd" />
    <path
       d="m 157.59152,213.35999 -8.6597,11.48563"
       id="path61"
       inkscape:connector-curvature="0"
       style="fill-rule:evenodd;stroke:#0b5394;stroke-width:3;stroke-linecap:butt;stroke-linejoin:round" />
    <path
       d="m 144.9752,221.86249 -4.23947,13.85387 12.15272,-7.88761 z"
       id="path63"
       inkscape:connector-curvature="0"
       style="fill:#0b5394;fill-rule:evenodd;stroke:#0b5394;stroke-width:3;stroke-linecap:butt" />
    <path
       d="m 330.09842,141.36102 41.48032,29.44882"
       id="path65"
       inkscape:connector-curvature="0"
       style="fill:#000000;fill-opacity:0;fill-rule:evenodd" />
    <path
       d="m 330.09842,141.36102 26.80307,19.02875"
       id="path67"
       inkscape:connector-curvature="0"
       style="fill-rule:evenodd;stroke:#0b5394;stroke-width:3;stroke-linecap:butt;stroke-linejoin:round" />
    <path
       d="m 354.03296,164.43025 13.96967,3.84074 -8.23261,-11.9217 z"
       id="path69"
       inkscape:connector-curvature="0"
       style="fill:#0b5394;fill-rule:evenodd;stroke:#0b5394;stroke-width:3;stroke-linecap:butt" />
    <path
       d="m 271.59152,141.36 -41.76378,29.5433"
       id="path71"
       inkscape:connector-curvature="0"
       style="fill:#000000;fill-opacity:0;fill-rule:evenodd" />
    <path
       d="M 271.59152,141.36 244.5227,160.50822"
       id="path73"
       inkscape:connector-curvature="0"
       style="fill-rule:evenodd;stroke:#0b5394;stroke-width:3;stroke-linecap:butt;stroke-linejoin:round" />
    <path
       d="m 241.66106,156.46286 -8.25288,11.90768 13.97618,-3.81695 z"
       id="path75"
       inkscape:connector-curvature="0"
       style="fill:#0b5394;fill-rule:evenodd;stroke:#0b5394;stroke-width:3;stroke-linecap:butt" />
    <path
       d="m 429.35547,219.85938 0.78741,89.44882"
       id="path77"
       inkscape:connector-curvature="0"
       style="fill:#000000;fill-opacity:0;fill-rule:evenodd" />
    <path
       d="m 429.35547,219.85938 0.62894,71.44952"
       id="path79"
       inkscape:connector-curvature="0"
       style="fill-rule:evenodd;stroke:#0b5394;stroke-width:3;stroke-linecap:butt;stroke-linejoin:round" />
    <path
       d="m 425.02942,291.3525 5.07486,13.57016 4.83517,-13.65741 z"
       id="path81"
       inkscape:connector-curvature="0"
       style="fill:#0b5394;fill-rule:evenodd;stroke:#0b5394;stroke-width:3;stroke-linecap:butt" />
    <path
       d="M 98.141464,344.25787 H 271.4013 v 43.33859 H 98.141464 Z"
       id="path83"
       inkscape:connector-curvature="0"
       style="fill:#000000;fill-opacity:0;fill-rule:evenodd" />
    <path
       d="m 122.4977,367.05164 q 0.21875,0 0.375,0.17188 l 1.0625,1.14062 q -0.89063,1.09375 -2.17188,1.67188 -1.28125,0.57812 -3.07812,0.57812 -1.60938,0 -2.90625,-0.54687 -1.28125,-0.54688 -2.1875,-1.53125 -0.90625,-0.98438 -1.39063,-2.34375 -0.48437,-1.35938 -0.48437,-2.96875 0,-1.625 0.53125,-2.96875 0.54687,-1.35938 1.51562,-2.34375 0.98438,-0.98438 2.34375,-1.53125 1.375,-0.54688 3.03125,-0.54688 1.60938,0 2.8125,0.51563 1.20313,0.51562 2.0625,1.375 l -0.90625,1.25 q -0.0781,0.10937 -0.20312,0.20312 -0.125,0.0937 -0.34375,0.0937 -0.23438,0 -0.46875,-0.17187 -0.23438,-0.1875 -0.60938,-0.39063 -0.375,-0.21875 -0.9375,-0.39062 -0.5625,-0.1875 -1.4375,-0.1875 -1.01562,0 -1.875,0.35937 -0.84375,0.34375 -1.46875,1.01563 -0.60937,0.65625 -0.95312,1.60937 -0.34375,0.9375 -0.34375,2.10938 0,1.21875 0.34375,2.17187 0.34375,0.95313 0.92187,1.60938 0.59375,0.64062 1.39063,0.98437 0.8125,0.34375 1.73437,0.34375 0.54688,0 0.98438,-0.0469 0.45312,-0.0625 0.82812,-0.1875 0.375,-0.14063 0.70313,-0.34375 0.34375,-0.20313 0.67187,-0.5 0.0937,-0.0937 0.20313,-0.14063 0.10937,-0.0625 0.25,-0.0625 z m 3.31623,3.40625 v -10.26562 h 1.45313 q 0.39062,0 0.53125,0.14062 0.15625,0.14063 0.20312,0.48438 l 0.15625,1.23437 q 0.54688,-0.9375 1.28125,-1.48437 0.75,-0.5625 1.65625,-0.5625 0.76563,0 1.26563,0.35937 l -0.3125,1.84375 q -0.0312,0.1875 -0.14063,0.26563 -0.0937,0.0625 -0.26562,0.0625 -0.15625,0 -0.42188,-0.0625 -0.25,-0.0781 -0.67187,-0.0781 -0.78125,0 -1.32813,0.4375 -0.54687,0.42188 -0.92187,1.23438 v 6.39062 z m 12.56063,-10.42187 q 1.14062,0 2.07812,0.375 0.9375,0.35937 1.59375,1.04687 0.67188,0.6875 1.03125,1.67188 0.35938,0.96875 0.35938,2.17187 0,1.21875 -0.35938,2.20313 -0.35937,0.98437 -1.03125,1.67187 -0.65625,0.6875 -1.59375,1.0625 -0.9375,0.375 -2.07812,0.375 -1.15625,0 -2.09375,-0.375 -0.9375,-0.375 -1.60938,-1.0625 -0.65625,-0.6875 -1.03125,-1.67187 -0.35937,-0.98438 -0.35937,-2.20313 0,-1.20312 0.35937,-2.17187 0.375,-0.98438 1.03125,-1.67188 0.67188,-0.6875 1.60938,-1.04687 0.9375,-0.375 2.09375,-0.375 z m 0,8.67187 q 1.28125,0 1.89062,-0.85937 0.60938,-0.85938 0.60938,-2.51563 0,-1.67187 -0.60938,-2.53125 -0.60937,-0.875 -1.89062,-0.875 -1.29688,0 -1.92188,0.875 -0.625,0.875 -0.625,2.53125 0,1.64063 0.625,2.51563 0.625,0.85937 1.92188,0.85937 z m 13.07312,-6.51562 q -0.0937,0.17187 -0.20313,0.23437 -0.10937,0.0625 -0.28125,0.0625 -0.1875,0 -0.39062,-0.0937 -0.20313,-0.10937 -0.46875,-0.23437 -0.26563,-0.125 -0.625,-0.21875 -0.34375,-0.10938 -0.8125,-0.10938 -0.71875,0 -1.14063,0.3125 -0.42187,0.3125 -0.42187,0.8125 0,0.32813 0.20312,0.5625 0.21875,0.21875 0.57813,0.39063 0.35937,0.17187 0.79687,0.3125 0.45313,0.125 0.92188,0.28125 0.48437,0.15625 0.92187,0.375 0.45313,0.20312 0.8125,0.51562 0.35938,0.3125 0.5625,0.75 0.21875,0.4375 0.21875,1.0625 0,0.73438 -0.26562,1.35938 -0.26563,0.625 -0.79688,1.09375 -0.51562,0.45312 -1.28125,0.70312 -0.76562,0.25 -1.75,0.25 -0.53125,0 -1.04687,-0.0937 -0.5,-0.0937 -0.96875,-0.26562 -0.45313,-0.17188 -0.85938,-0.39063 -0.39062,-0.23437 -0.6875,-0.5 l 0.5625,-0.95312 q 0.10938,-0.15625 0.26563,-0.25 0.15625,-0.0937 0.375,-0.0937 0.23437,0 0.4375,0.14062 0.20312,0.125 0.46875,0.28125 0.28125,0.14063 0.64062,0.28125 0.375,0.125 0.92188,0.125 0.45312,0 0.76562,-0.10937 0.3125,-0.10938 0.51563,-0.28125 0.20312,-0.17188 0.29687,-0.39063 0.0937,-0.21875 0.0937,-0.46875 0,-0.35937 -0.21875,-0.57812 -0.20312,-0.23438 -0.5625,-0.40625 -0.35937,-0.17188 -0.8125,-0.29688 -0.45312,-0.14062 -0.9375,-0.29687 -0.46875,-0.17188 -0.92187,-0.375 -0.45313,-0.21875 -0.8125,-0.54688 -0.34375,-0.34375 -0.5625,-0.8125 -0.21875,-0.48437 -0.21875,-1.17187 0,-0.625 0.25,-1.1875 0.25,-0.57813 0.73437,-1 0.48438,-0.42188 1.20313,-0.67188 0.73437,-0.26562 1.6875,-0.26562 1.0625,0 1.92187,0.35937 0.875,0.34375 1.45313,0.90625 z m 8.73999,0 q -0.0937,0.17187 -0.20313,0.23437 -0.10937,0.0625 -0.28125,0.0625 -0.1875,0 -0.39062,-0.0937 -0.20313,-0.10937 -0.46875,-0.23437 -0.26563,-0.125 -0.625,-0.21875 -0.34375,-0.10938 -0.8125,-0.10938 -0.71875,0 -1.14063,0.3125 -0.42187,0.3125 -0.42187,0.8125 0,0.32813 0.20312,0.5625 0.21875,0.21875 0.57813,0.39063 0.35937,0.17187 0.79687,0.3125 0.45313,0.125 0.92188,0.28125 0.48437,0.15625 0.92187,0.375 0.45313,0.20312 0.8125,0.51562 0.35938,0.3125 0.5625,0.75 0.21875,0.4375 0.21875,1.0625 0,0.73438 -0.26562,1.35938 -0.26563,0.625 -0.79688,1.09375 -0.51562,0.45312 -1.28125,0.70312 -0.76562,0.25 -1.75,0.25 -0.53125,0 -1.04687,-0.0937 -0.5,-0.0937 -0.96875,-0.26562 -0.45313,-0.17188 -0.85938,-0.39063 -0.39062,-0.23437 -0.6875,-0.5 l 0.5625,-0.95312 q 0.10938,-0.15625 0.26563,-0.25 0.15625,-0.0937 0.375,-0.0937 0.23437,0 0.4375,0.14062 0.20312,0.125 0.46875,0.28125 0.28125,0.14063 0.64062,0.28125 0.375,0.125 0.92188,0.125 0.45312,0 0.76562,-0.10937 0.3125,-0.10938 0.51563,-0.28125 0.20312,-0.17188 0.29687,-0.39063 0.0937,-0.21875 0.0937,-0.46875 0,-0.35937 -0.21875,-0.57812 -0.20312,-0.23438 -0.5625,-0.40625 -0.35937,-0.17188 -0.8125,-0.29688 -0.45312,-0.14062 -0.9375,-0.29687 -0.46875,-0.17188 -0.92187,-0.375 -0.45313,-0.21875 -0.8125,-0.54688 -0.34375,-0.34375 -0.5625,-0.8125 -0.21875,-0.48437 -0.21875,-1.17187 0,-0.625 0.25,-1.1875 0.25,-0.57813 0.73437,-1 0.48438,-0.42188 1.20313,-0.67188 0.73437,-0.26562 1.6875,-0.26562 1.0625,0 1.92187,0.35937 0.875,0.34375 1.45313,0.90625 z m 2.33374,1.20312 h 5.1875 v 2.04688 h -5.1875 z m 12.63312,7.0625 h -2.23438 l -4.07812,-10.26562 h 2.04687 q 0.26563,0 0.45313,0.14062 0.1875,0.125 0.26562,0.32813 l 1.96875,5.48437 q 0.17188,0.46875 0.28125,0.9375 0.125,0.45313 0.21875,0.92188 0.0781,-0.46875 0.1875,-0.92188 0.125,-0.46875 0.3125,-0.9375 l 2.03125,-5.48437 q 0.0625,-0.20313 0.23438,-0.32813 0.1875,-0.14062 0.4375,-0.14062 h 1.95312 z m 13.57623,0 h -1.10938 q -0.34375,0 -0.54687,-0.0937 -0.20313,-0.10937 -0.29688,-0.4375 l -0.21875,-0.73437 q -0.39062,0.35937 -0.76562,0.625 -0.375,0.26562 -0.78125,0.45312 -0.40625,0.17188 -0.85938,0.25 -0.4375,0.0937 -0.98437,0.0937 -0.65625,0 -1.20313,-0.17187 -0.54687,-0.17188 -0.95312,-0.51563 -0.39063,-0.35937 -0.60938,-0.875 -0.21875,-0.53125 -0.21875,-1.21875 0,-0.57812 0.29688,-1.14062 0.3125,-0.5625 1.01562,-1.01563 0.71875,-0.45312 1.89063,-0.75 1.1875,-0.3125 2.9375,-0.34375 v -0.60937 q 0,-1.03125 -0.4375,-1.51563 -0.4375,-0.5 -1.26563,-0.5 -0.59375,0 -1,0.14063 -0.40625,0.14062 -0.70312,0.3125 -0.28125,0.17187 -0.53125,0.3125 -0.25,0.14062 -0.5625,0.14062 -0.25,0 -0.4375,-0.125 -0.17188,-0.125 -0.28125,-0.32812 l -0.4375,-0.78125 q 1.76562,-1.625 4.26562,-1.625 0.89063,0 1.59375,0.29687 0.71875,0.29688 1.20313,0.82813 0.48437,0.51562 0.73437,1.25 0.26563,0.73437 0.26563,1.59375 z m -4.79688,-1.54687 q 0.375,0 0.6875,-0.0625 0.32813,-0.0781 0.60938,-0.20313 0.29687,-0.14062 0.5625,-0.34375 0.26562,-0.21875 0.53125,-0.5 v -1.71875 q -1.07813,0.0469 -1.8125,0.1875 -0.71875,0.125 -1.15625,0.34375 -0.4375,0.20313 -0.625,0.48438 -0.1875,0.28125 -0.1875,0.60937 0,0.65625 0.375,0.9375 0.39062,0.26563 1.01562,0.26563 z m 9.86061,-13.3125 v 14.85937 h -2.46875 v -14.85937 z m 5.42,4.59375 v 10.26562 h -2.46875 v -10.26562 z m 0.35938,-2.98438 q 0,0.3125 -0.125,0.59375 -0.125,0.28125 -0.34375,0.5 -0.21875,0.20313 -0.51563,0.32813 -0.28125,0.125 -0.60937,0.125 -0.3125,0 -0.60938,-0.125 -0.28125,-0.125 -0.5,-0.32813 -0.20312,-0.21875 -0.32812,-0.5 -0.125,-0.28125 -0.125,-0.59375 0,-0.32812 0.125,-0.60937 0.125,-0.29688 0.32812,-0.5 0.21875,-0.21875 0.5,-0.34375 0.29688,-0.125 0.60938,-0.125 0.32812,0 0.60937,0.125 0.29688,0.125 0.51563,0.34375 0.21875,0.20312 0.34375,0.5 0.125,0.28125 0.125,0.60937 z m 9.65437,13.25 q -0.48437,0 -0.64062,-0.45312 l -0.20313,-0.98438 q -0.3125,0.35938 -0.67187,0.65625 -0.34375,0.28125 -0.75,0.5 -0.40625,0.20313 -0.875,0.3125 -0.45313,0.125 -1,0.125 -0.84375,0 -1.54688,-0.34375 -0.6875,-0.35937 -1.20312,-1.01562 -0.5,-0.67188 -0.78125,-1.65625 -0.26563,-0.98438 -0.26563,-2.23438 0,-1.14062 0.3125,-2.125 0.3125,-0.98437 0.89063,-1.70312 0.57812,-0.71875 1.39062,-1.125 0.8125,-0.40625 1.8125,-0.40625 0.85938,0 1.46875,0.28125 0.60938,0.26562 1.09375,0.73437 v -5.42187 h 2.46875 v 14.85937 z m -3.29687,-1.8125 q 0.76562,0 1.29687,-0.3125 0.54688,-0.32812 1.03125,-0.92187 v -4.59375 q -0.42187,-0.51563 -0.92187,-0.71875 -0.48438,-0.20313 -1.0625,-0.20313 -0.54688,0 -1.01563,0.20313 -0.45312,0.20312 -0.76562,0.64062 -0.3125,0.42188 -0.48438,1.07813 -0.17187,0.65625 -0.17187,1.54687 0,0.89063 0.14062,1.51563 0.15625,0.625 0.42188,1.03125 0.26562,0.39062 0.65625,0.5625 0.39062,0.17187 0.875,0.17187 z m 15.50936,1.8125 h -1.10937 q -0.34375,0 -0.54688,-0.0937 -0.20312,-0.10937 -0.29687,-0.4375 l -0.21875,-0.73437 q -0.39063,0.35937 -0.76563,0.625 -0.375,0.26562 -0.78125,0.45312 -0.40625,0.17188 -0.85937,0.25 -0.4375,0.0937 -0.98438,0.0937 -0.65625,0 -1.20312,-0.17187 -0.54688,-0.17188 -0.95313,-0.51563 -0.39062,-0.35937 -0.60937,-0.875 -0.21875,-0.53125 -0.21875,-1.21875 0,-0.57812 0.29687,-1.14062 0.3125,-0.5625 1.01563,-1.01563 0.71875,-0.45312 1.89062,-0.75 1.1875,-0.3125 2.9375,-0.34375 v -0.60937 q 0,-1.03125 -0.4375,-1.51563 -0.4375,-0.5 -1.26562,-0.5 -0.59375,0 -1,0.14063 -0.40625,0.14062 -0.70313,0.3125 -0.28125,0.17187 -0.53125,0.3125 -0.25,0.14062 -0.5625,0.14062 -0.25,0 -0.4375,-0.125 -0.17187,-0.125 -0.28125,-0.32812 l -0.4375,-0.78125 q 1.76563,-1.625 4.26563,-1.625 0.89062,0 1.59375,0.29687 0.71875,0.29688 1.20312,0.82813 0.48438,0.51562 0.73438,1.25 0.26562,0.73437 0.26562,1.59375 z m -4.79687,-1.54687 q 0.375,0 0.6875,-0.0625 0.32812,-0.0781 0.60937,-0.20313 0.29688,-0.14062 0.5625,-0.34375 0.26563,-0.21875 0.53125,-0.5 v -1.71875 q -1.07812,0.0469 -1.8125,0.1875 -0.71875,0.125 -1.15625,0.34375 -0.4375,0.20313 -0.625,0.48438 -0.1875,0.28125 -0.1875,0.60937 0,0.65625 0.375,0.9375 0.39063,0.26563 1.01563,0.26563 z m 10.59499,1.70312 q -1.32813,0 -2.04688,-0.75 -0.71875,-0.75 -0.71875,-2.09375 v -5.71875 h -1.04687 q -0.1875,0 -0.34375,-0.125 -0.14063,-0.14062 -0.14063,-0.40625 v -0.96875 l 1.65625,-0.28125 0.51563,-2.79687 q 0.0312,-0.20313 0.17187,-0.3125 0.15625,-0.10938 0.375,-0.10938 h 1.28125 v 3.23438 h 2.70313 v 1.76562 h -2.70313 v 5.5625 q 0,0.46875 0.23438,0.75 0.25,0.26563 0.64062,0.26563 0.23438,0 0.39063,-0.0469 0.15625,-0.0625 0.26562,-0.125 0.125,-0.0625 0.20313,-0.10937 0.0937,-0.0625 0.1875,-0.0625 0.10937,0 0.17187,0.0625 0.0781,0.0469 0.15625,0.15625 l 0.73438,1.20312 q -0.53125,0.45313 -1.23438,0.6875 -0.70312,0.21875 -1.45312,0.21875 z m 7.00561,-10.42187 v 10.26562 h -2.46875 v -10.26562 z m 0.35938,-2.98438 q 0,0.3125 -0.125,0.59375 -0.125,0.28125 -0.34375,0.5 -0.21875,0.20313 -0.51563,0.32813 -0.28125,0.125 -0.60937,0.125 -0.3125,0 -0.60938,-0.125 -0.28125,-0.125 -0.5,-0.32813 -0.20312,-0.21875 -0.32812,-0.5 -0.125,-0.28125 -0.125,-0.59375 0,-0.32812 0.125,-0.60937 0.125,-0.29688 0.32812,-0.5 0.21875,-0.21875 0.5,-0.34375 0.29688,-0.125 0.60938,-0.125 0.32812,0 0.60937,0.125 0.29688,0.125 0.51563,0.34375 0.21875,0.20312 0.34375,0.5 0.125,0.28125 0.125,0.60937 z m 6.81062,2.82813 q 1.14062,0 2.07812,0.375 0.9375,0.35937 1.59375,1.04687 0.67188,0.6875 1.03125,1.67188 0.35938,0.96875 0.35938,2.17187 0,1.21875 -0.35938,2.20313 -0.35937,0.98437 -1.03125,1.67187 -0.65625,0.6875 -1.59375,1.0625 -0.9375,0.375 -2.07812,0.375 -1.15625,0 -2.09375,-0.375 -0.9375,-0.375 -1.60938,-1.0625 -0.65625,-0.6875 -1.03125,-1.67187 -0.35937,-0.98438 -0.35937,-2.20313 0,-1.20312 0.35937,-2.17187 0.375,-0.98438 1.03125,-1.67188 0.67188,-0.6875 1.60938,-1.04687 0.9375,-0.375 2.09375,-0.375 z m 0,8.67187 q 1.28125,0 1.89062,-0.85937 0.60938,-0.85938 0.60938,-2.51563 0,-1.67187 -0.60938,-2.53125 -0.60937,-0.875 -1.89062,-0.875 -1.29688,0 -1.92188,0.875 -0.625,0.875 -0.625,2.53125 0,1.64063 0.625,2.51563 0.625,0.85937 1.92188,0.85937 z m 6.97937,1.75 v -10.26562 h 1.51562 q 0.48438,0 0.625,0.45312 l 0.17188,0.8125 q 0.3125,-0.3125 0.65625,-0.57812 0.34375,-0.26563 0.73437,-0.45313 0.39063,-0.1875 0.82813,-0.28125 0.4375,-0.10937 0.95312,-0.10937 0.84375,0 1.48438,0.29687 0.65625,0.28125 1.09375,0.79688 0.4375,0.51562 0.65625,1.23437 0.23437,0.70313 0.23437,1.5625 v 6.53125 h -2.46875 v -6.53125 q 0,-0.9375 -0.4375,-1.45312 -0.4375,-0.51563 -1.3125,-0.51563 -0.64062,0 -1.20312,0.29688 -0.54688,0.28125 -1.04688,0.78125 v 7.42187 z"
       id="path85"
       inkscape:connector-curvature="0"
       style="fill:#3d85c6;fill-rule:nonzero" />
    <path
       d="m 163.68,321.13583 v 0 c 0,-11.53274 9.34915,-20.8819 20.8819,-20.8819 v 0 c 5.53822,0 10.84961,2.20005 14.76573,6.11615 3.91611,3.91614 6.11616,9.22751 6.11616,14.76575 v 0 c 0,11.53274 -9.34915,20.8819 -20.88189,20.8819 v 0 c -11.53275,0 -20.8819,-9.34916 -20.8819,-20.8819 z"
       id="path87"
       inkscape:connector-curvature="0"
       style="fill:#3d85c6;fill-rule:evenodd" />
    <path
       d="m 163.68,321.13583 v 0 c 0,-11.53274 9.34915,-20.8819 20.8819,-20.8819 v 0 c 5.53822,0 10.84961,2.20005 14.76573,6.11615 3.91611,3.91614 6.11616,9.22751 6.11616,14.76575 v 0 c 0,11.53274 -9.34915,20.8819 -20.88189,20.8819 v 0 c -11.53275,0 -20.8819,-9.34916 -20.8819,-20.8819 z"
       id="path89"
       inkscape:connector-curvature="0"
       style="fill-rule:evenodd;stroke:#595959;stroke-width:1;stroke-linecap:butt;stroke-linejoin:round" />
    <path
       d="m 164.4,302.4 h 41.48032 v 32.03149 H 164.4 Z"
       id="path91"
       inkscape:connector-curvature="0"
       style="fill:#000000;fill-opacity:0;fill-rule:evenodd" />
    <path
       d="m 183.9114,314.80438 q 0,0.5 -0.3125,0.8125 -0.3125,0.29687 -1.03125,0.29687 h -3.71875 l -0.48438,2.82813 q 0.92188,-0.1875 1.67188,-0.1875 1.0625,0 1.85937,0.3125 0.8125,0.3125 1.35938,0.875 0.5625,0.5625 0.84375,1.3125 0.28125,0.75 0.28125,1.625 0,1.0625 -0.39063,1.95312 -0.375,0.89063 -1.04687,1.51563 -0.67188,0.625 -1.59375,0.98437 -0.90625,0.34375 -1.98438,0.34375 -0.64062,0 -1.21875,-0.14062 -0.5625,-0.125 -1.0625,-0.34375 -0.5,-0.21875 -0.92187,-0.5 -0.42188,-0.29688 -0.76563,-0.60938 l 0.71875,-0.98437 q 0.21875,-0.3125 0.59375,-0.3125 0.23438,0 0.46875,0.15625 0.23438,0.14062 0.54688,0.32812 0.32812,0.17188 0.75,0.32813 0.42187,0.14062 1.01562,0.14062 0.625,0 1.10938,-0.20312 0.5,-0.20313 0.8125,-0.5625 0.32812,-0.375 0.48437,-0.89063 0.17188,-0.51562 0.17188,-1.10937 0,-1.09375 -0.64063,-1.71875 -0.64062,-0.625 -1.89062,-0.625 -0.96875,0 -1.96875,0.35937 l -1.42188,-0.40625 1.10938,-6.54687 h 6.65625 z m 5.10188,7.57812 -3.14062,-4.64062 h 2.21875 q 0.25,0 0.35937,0.0781 0.125,0.0625 0.21875,0.23438 l 2.01563,3.1875 q 0.0469,-0.15625 0.10937,-0.3125 0.0781,-0.15625 0.17188,-0.3125 l 1.625,-2.51563 q 0.10937,-0.1875 0.21875,-0.26562 0.125,-0.0937 0.3125,-0.0937 h 2.10937 l -3.15625,4.54687 3.28125,5.03125 h -2.21875 q -0.25,0 -0.40625,-0.125 -0.14062,-0.14062 -0.25,-0.29687 l -2.03125,-3.34375 q -0.0937,0.34375 -0.23437,0.5625 l -1.79688,2.78125 q -0.0937,0.15625 -0.25,0.29687 -0.14062,0.125 -0.375,0.125 h -2.0625 z"
       id="path93"
       inkscape:connector-curvature="0"
       style="fill:#ffffff;fill-rule:nonzero" />
  </g>
</svg>
